<svg xmlns="http://www.w3.org/2000/svg" xmlns:xlink="http://www.w3.org/1999/xlink" width="500" zoomAndPan="magnify" viewBox="0 0 375 374.999991" height="500" preserveAspectRatio="xMidYMid meet" version="1.0"><defs><g/><clipPath id="e0f4e0befb"><path d="M 79.242188 38.210938 L 295.992188 38.210938 L 295.992188 216.710938 L 79.242188 216.710938 Z M 79.242188 38.210938 " clip-rule="nonzero"/></clipPath><clipPath id="d8e77eb0da"><path d="M 0 73 L 47 73 L 47 136 L 0 136 Z M 0 73 " clip-rule="nonzero"/></clipPath><clipPath id="443aa249f4"><path d="M 313 66 L 375 66 L 375 126 L 313 126 Z M 313 66 " clip-rule="nonzero"/></clipPath><clipPath id="cb0fa267ef"><rect x="0" width="375" y="0" height="177"/></clipPath></defs><g clip-path="url(#e0f4e0befb)"><path fill="#2e3192" d="M 295.6875 121.132812 C 295.617188 122.445312 295.617188 123.757812 295.617188 124.933594 C 295.617188 125.898438 295.617188 126.867188 295.550781 127.835938 C 295.550781 128.386719 295.480469 128.941406 295.480469 129.492188 C 295.480469 130.183594 295.410156 130.804688 295.410156 131.496094 C 295.410156 132.1875 295.410156 132.878906 295.410156 133.636719 C 295.410156 134.121094 295.410156 134.605469 295.410156 135.089844 C 295.410156 135.574219 295.410156 136.125 295.410156 136.609375 C 295.410156 136.816406 295.410156 137.09375 295.410156 137.300781 C 295.410156 138.886719 295.410156 140.476562 295.410156 142.34375 L 295.410156 142.410156 C 295.410156 143.378906 295.410156 144.414062 295.34375 145.519531 C 295.34375 146.488281 295.273438 147.523438 295.273438 148.492188 L 295.203125 149.875 C 295.066406 153.949219 294.929688 158.164062 294.582031 162.238281 C 294.238281 166.59375 294.03125 171.152344 294.03125 175.847656 C 294.097656 177.230469 294.167969 178.683594 294.238281 180.203125 C 294.375 181.859375 294.445312 183.519531 294.511719 185.105469 C 294.511719 185.039062 294.511719 184.96875 294.511719 184.898438 C 294.511719 185.9375 294.511719 186.902344 294.582031 187.941406 C 294.582031 188.5625 294.582031 189.183594 294.582031 189.734375 C 294.582031 191.253906 294.582031 192.429688 294.582031 193.605469 C 294.511719 194.847656 294.511719 195.953125 294.511719 196.988281 C 294.511719 197.40625 294.511719 197.820312 294.511719 198.234375 C 294.511719 199.960938 294.511719 201.757812 294.304688 203.484375 C 294.167969 204.660156 294.03125 205.625 293.683594 206.386719 C 293.546875 206.660156 293.40625 206.9375 293.269531 207.144531 C 293.269531 207.285156 293.339844 207.351562 293.339844 207.492188 C 293.476562 208.183594 293.269531 208.871094 292.855469 209.425781 C 292.785156 209.5625 292.648438 209.632812 292.578125 209.703125 C 292.511719 209.976562 292.441406 210.253906 292.300781 210.53125 C 291.957031 211.222656 291.335938 212.121094 290.230469 212.464844 L 290.09375 212.535156 C 289.675781 212.671875 289.261719 212.742188 288.847656 212.808594 C 288.363281 212.878906 287.8125 212.878906 287.191406 212.878906 C 286.777344 212.878906 286.359375 212.878906 285.878906 212.878906 C 285.1875 212.878906 284.496094 212.878906 283.804688 212.878906 C 283.320312 212.878906 282.835938 212.878906 282.285156 212.878906 C 280.210938 212.878906 278.070312 212.671875 276 212.464844 L 275.582031 212.394531 C 273.371094 212.1875 271.09375 212.121094 268.8125 212.050781 L 266.257812 212.050781 C 264.390625 212.328125 262.527344 212.601562 260.730469 212.878906 L 260.523438 212.878906 C 258.519531 213.15625 256.378906 213.5 254.304688 213.640625 C 253.0625 213.707031 251.75 213.777344 250.503906 213.847656 C 249.605469 213.914062 248.640625 213.914062 247.742188 213.984375 C 246.84375 214.054688 245.875 214.125 244.980469 214.191406 C 243.457031 214.332031 241.9375 214.46875 240.351562 214.46875 L 240.003906 214.46875 C 239.796875 214.46875 239.660156 214.46875 239.453125 214.46875 C 239.105469 214.46875 238.828125 214.46875 238.621094 214.398438 C 237.863281 214.332031 237.171875 214.125 236.621094 213.984375 C 236.480469 213.984375 236.410156 213.914062 236.273438 213.914062 C 235.996094 213.847656 235.652344 213.777344 235.375 213.640625 C 234.617188 213.363281 233.648438 212.742188 233.304688 211.773438 C 233.027344 211.082031 232.957031 210.324219 232.957031 209.5625 L 232.957031 209.496094 C 232.886719 208.390625 232.820312 207.285156 232.820312 206.316406 C 232.75 204.105469 232.679688 201.894531 232.542969 199.890625 C 232.472656 198.71875 232.40625 197.679688 232.265625 196.644531 C 232.199219 195.746094 231.992188 194.847656 231.851562 193.949219 L 231.714844 193.257812 L 231.644531 192.914062 L 231.574219 192.566406 C 231.4375 192.222656 231.300781 191.945312 231.367188 191.671875 C 231.367188 191.464844 231.367188 191.324219 231.367188 191.117188 C 231.160156 189.734375 230.886719 188.078125 230.609375 186.488281 C 230.402344 185.3125 230.195312 184.070312 229.988281 183.101562 C 229.78125 182.207031 229.640625 181.308594 229.574219 180.410156 L 229.433594 179.648438 L 229.226562 178.40625 C 229.019531 177.160156 228.8125 175.847656 228.675781 174.605469 L 228.675781 174.328125 C 228.46875 173.640625 228.191406 173.015625 227.914062 172.394531 C 227.84375 172.1875 227.707031 171.910156 227.636719 171.703125 L 227.222656 170.597656 C 226.671875 169.21875 226.117188 167.765625 225.425781 166.453125 C 225.359375 166.246094 225.21875 166.109375 225.152344 165.902344 C 225.011719 165.902344 224.875 165.902344 224.738281 165.902344 C 224.390625 165.902344 223.976562 165.902344 223.632812 165.902344 C 223.214844 165.902344 222.871094 165.902344 222.457031 165.902344 C 222.25 165.902344 221.972656 165.902344 221.765625 165.902344 C 221.765625 166.109375 221.695312 166.246094 221.695312 166.453125 C 221.695312 166.800781 221.695312 167.214844 221.695312 167.558594 C 221.695312 167.90625 221.695312 168.179688 221.695312 168.527344 C 221.695312 169.078125 221.628906 169.699219 221.558594 170.253906 C 221.558594 170.460938 221.488281 170.667969 221.488281 170.875 C 221.421875 171.773438 221.28125 172.464844 221.144531 173.15625 C 221.074219 173.363281 221.074219 173.570312 221.003906 173.777344 C 221.003906 173.914062 220.9375 174.121094 220.867188 174.261719 C 220.796875 174.535156 220.730469 174.882812 220.730469 175.226562 C 220.730469 175.574219 220.730469 175.917969 220.730469 176.265625 L 220.730469 176.472656 C 220.730469 176.679688 220.660156 176.816406 220.589844 176.953125 C 220.796875 177.4375 220.523438 178.058594 219.96875 178.40625 C 219.691406 178.542969 219.484375 178.542969 219.210938 178.613281 C 219.140625 178.613281 219.070312 178.613281 219.003906 178.613281 C 218.171875 178.75 217.273438 178.820312 216.167969 178.890625 C 215.617188 178.890625 215.203125 178.957031 214.789062 178.957031 C 214.71875 178.957031 214.648438 178.957031 214.511719 178.957031 C 214.027344 178.957031 213.476562 178.957031 212.785156 178.890625 C 212.300781 178.890625 211.816406 178.890625 211.402344 178.890625 L 210.988281 178.890625 C 210.644531 178.890625 210.367188 178.890625 210.019531 178.890625 C 209.8125 178.890625 209.539062 178.890625 209.332031 178.890625 C 208.570312 178.890625 207.808594 178.890625 207.050781 178.820312 C 206.566406 178.820312 206.082031 178.820312 205.597656 178.75 C 205.253906 178.75 204.910156 178.75 204.5625 178.75 C 204.078125 178.75 203.527344 178.75 203.042969 178.75 C 203.042969 178.820312 203.042969 178.820312 203.042969 178.890625 C 203.042969 178.957031 203.042969 179.027344 203.042969 179.164062 C 203.042969 179.234375 203.042969 179.304688 203.042969 179.371094 C 203.042969 179.855469 203.042969 180.269531 202.972656 180.683594 L 202.972656 180.617188 C 202.972656 180.894531 202.90625 181.101562 202.90625 181.375 C 202.835938 181.929688 202.835938 182.414062 202.835938 182.828125 C 202.835938 183.171875 202.835938 183.519531 202.835938 183.792969 C 202.835938 183.933594 202.835938 184.140625 202.835938 184.277344 C 202.835938 184.625 202.835938 184.96875 202.835938 185.3125 C 202.835938 185.9375 202.765625 186.558594 202.835938 187.25 C 202.835938 187.664062 202.90625 188.007812 202.90625 188.285156 C 202.90625 188.421875 202.90625 188.492188 202.972656 188.628906 C 203.042969 188.90625 203.042969 189.183594 203.042969 189.460938 C 203.042969 189.667969 203.042969 189.875 203.113281 190.011719 C 203.179688 190.632812 203.179688 191.1875 203.113281 191.808594 C 203.113281 192.015625 203.042969 192.222656 202.972656 192.359375 C 202.90625 192.566406 202.765625 192.84375 202.628906 193.050781 C 202.492188 193.191406 202.351562 193.398438 202.214844 193.535156 C 202.007812 193.742188 201.730469 193.882812 201.386719 193.949219 C 200.972656 194.089844 200.554688 194.089844 200.140625 194.089844 C 199.867188 194.089844 199.519531 194.089844 199.242188 194.089844 C 198.96875 194.089844 198.691406 194.089844 198.414062 194.089844 C 197.929688 194.089844 197.308594 194.15625 196.6875 194.15625 C 196.410156 194.15625 196.136719 194.226562 195.859375 194.226562 C 195.582031 194.226562 195.238281 194.296875 194.890625 194.296875 C 194.339844 194.363281 193.785156 194.363281 193.234375 194.363281 C 192.542969 194.363281 191.921875 194.433594 191.230469 194.503906 C 190.539062 194.570312 189.847656 194.640625 189.15625 194.710938 C 188.671875 194.777344 188.191406 194.777344 187.636719 194.847656 C 186.460938 194.984375 185.21875 194.984375 184.113281 195.054688 C 181.488281 195.195312 179.070312 195.261719 176.859375 195.261719 C 176.789062 195.261719 176.722656 195.261719 176.582031 195.261719 C 176.308594 195.261719 176.101562 195.261719 175.824219 195.261719 C 175.546875 195.261719 175.339844 195.261719 175.0625 195.261719 L 174.71875 195.261719 C 174.304688 195.261719 173.820312 195.261719 173.40625 195.261719 C 173.199219 195.261719 172.921875 195.261719 172.714844 195.261719 L 172.507812 195.261719 C 172.230469 195.261719 171.886719 195.261719 171.609375 195.195312 C 171.195312 195.125 170.367188 194.917969 170.160156 194.363281 C 170.089844 194.15625 170.089844 193.949219 170.089844 193.742188 C 170.089844 193.605469 170.089844 193.535156 170.089844 193.398438 C 170.089844 193.328125 170.089844 193.191406 170.089844 193.121094 C 170.089844 193.050781 170.089844 192.914062 170.089844 192.84375 C 170.089844 192.777344 170.089844 192.636719 170.089844 192.566406 L 170.089844 192.292969 C 170.089844 192.015625 170.089844 191.671875 170.089844 191.394531 C 170.089844 191.1875 170.089844 191.046875 170.089844 190.839844 C 170.089844 190.632812 170.089844 190.425781 170.089844 190.21875 L 170.089844 190.082031 C 170.089844 189.734375 170.160156 189.320312 170.160156 188.976562 C 170.226562 188.078125 170.160156 187.109375 170.089844 186.351562 L 170.089844 186.28125 C 170.019531 185.867188 170.019531 185.453125 169.953125 185.039062 C 169.953125 184.96875 169.882812 184.832031 169.882812 184.761719 C 169.8125 184.625 169.8125 184.484375 169.8125 184.347656 C 169.742188 184.140625 169.742188 183.863281 169.675781 183.65625 C 169.605469 183.378906 169.742188 183.101562 170.019531 182.964844 C 170.019531 182.828125 170.089844 182.6875 170.160156 182.621094 C 170.296875 182.414062 170.574219 182.207031 170.917969 182.136719 C 172.851562 181.789062 174.789062 181.652344 176.308594 181.652344 C 176.582031 181.652344 176.859375 181.652344 177.136719 181.652344 C 177.414062 181.652344 177.757812 181.652344 178.035156 181.582031 L 178.585938 181.582031 C 179.070312 181.582031 179.484375 181.582031 179.96875 181.515625 C 180.453125 181.515625 181.003906 181.445312 181.488281 181.445312 C 182.179688 181.375 182.800781 181.375 183.492188 181.375 C 183.90625 181.375 184.320312 181.375 184.734375 181.375 C 184.941406 181.375 185.148438 181.375 185.355469 181.375 C 185.910156 181.375 186.394531 181.375 186.878906 181.375 C 187.015625 181.375 187.085938 181.375 187.222656 181.375 C 187.429688 181.375 187.707031 181.375 187.914062 181.375 C 188.257812 181.375 188.605469 181.375 189.019531 181.375 L 189.089844 181.375 C 189.15625 181.375 189.296875 181.375 189.363281 181.375 C 189.503906 181.375 189.570312 181.375 189.710938 181.375 C 189.917969 181.375 190.054688 181.375 190.195312 181.375 C 190.261719 181.101562 190.261719 180.894531 190.332031 180.617188 C 190.332031 180.476562 190.332031 180.410156 190.332031 180.269531 C 190.332031 180.132812 190.402344 179.996094 190.402344 179.855469 C 190.46875 179.582031 190.46875 179.304688 190.539062 179.027344 C 190.539062 178.683594 190.609375 178.40625 190.675781 178.058594 C 190.746094 177.578125 190.816406 177.09375 190.816406 176.539062 C 190.816406 176.125 190.882812 175.640625 190.882812 175.226562 L 190.882812 175.160156 C 190.882812 174.675781 190.953125 174.191406 190.953125 173.777344 L 190.953125 173.640625 C 190.953125 173.15625 191.023438 172.671875 191.023438 172.257812 L 191.023438 171.84375 C 191.023438 171.703125 191.023438 171.566406 191.023438 171.429688 C 191.023438 171.289062 191.023438 171.152344 191.023438 171.011719 C 191.023438 170.667969 191.023438 170.390625 191.089844 169.976562 L 191.089844 169.425781 C 191.089844 169.355469 191.089844 169.355469 191.089844 169.285156 C 191.089844 169.21875 191.089844 169.21875 191.089844 169.148438 L 191.089844 169.078125 C 191.089844 168.941406 191.089844 168.871094 191.160156 168.734375 C 191.230469 168.527344 191.296875 168.457031 191.4375 168.25 L 191.507812 168.179688 C 191.714844 167.972656 192.128906 167.765625 192.402344 167.699219 C 192.472656 167.699219 192.613281 167.628906 192.679688 167.628906 C 193.027344 167.558594 193.371094 167.558594 193.648438 167.558594 C 193.992188 167.558594 194.339844 167.558594 194.613281 167.558594 C 195.445312 167.558594 196.273438 167.488281 197.101562 167.488281 C 197.65625 167.488281 198.207031 167.421875 198.828125 167.421875 C 199.3125 167.421875 199.867188 167.421875 200.347656 167.351562 C 201.039062 167.351562 201.730469 167.351562 202.492188 167.28125 C 203.113281 167.28125 203.664062 167.214844 204.285156 167.214844 C 204.632812 167.214844 204.976562 167.214844 205.253906 167.144531 C 205.53125 167.144531 205.738281 167.144531 206.015625 167.074219 C 206.636719 167.074219 207.257812 167.007812 207.878906 167.007812 L 208.15625 167.007812 C 208.570312 167.007812 208.984375 166.9375 209.46875 166.9375 C 209.605469 166.9375 209.675781 166.9375 209.8125 166.9375 L 210.019531 166.9375 C 210.226562 166.9375 210.503906 166.9375 210.710938 166.9375 L 210.917969 166.9375 C 211.058594 166.9375 211.265625 166.9375 211.402344 166.9375 L 211.402344 166.800781 C 211.402344 166.59375 211.332031 166.382812 211.332031 166.109375 C 211.332031 165.96875 211.332031 165.832031 211.332031 165.695312 C 211.332031 165.417969 211.332031 165.140625 211.332031 164.863281 C 211.332031 164.449219 211.332031 164.105469 211.402344 163.691406 L 211.402344 163.277344 C 211.472656 162.585938 211.472656 161.824219 211.539062 161.132812 C 211.539062 160.582031 211.609375 160.027344 211.609375 159.546875 C 211.609375 159.269531 211.609375 158.992188 211.609375 158.714844 C 211.609375 158.507812 211.609375 158.300781 211.679688 158.09375 C 211.679688 157.957031 211.679688 157.816406 211.679688 157.609375 C 211.679688 157.472656 211.679688 157.335938 211.679688 157.195312 C 211.679688 156.917969 211.679688 156.644531 211.75 156.296875 C 211.75 156.023438 211.816406 155.675781 211.886719 155.398438 C 211.957031 155.125 212.09375 154.847656 212.230469 154.5 C 212.4375 154.019531 213.128906 153.742188 213.683594 153.742188 C 213.75 153.742188 213.890625 153.742188 213.960938 153.742188 C 213.335938 153.328125 212.714844 152.84375 212.09375 152.429688 C 210.574219 151.460938 209.054688 150.703125 207.535156 150.011719 C 206.082031 149.390625 204.5625 148.769531 202.558594 148.007812 C 201.59375 147.730469 200.832031 147.523438 200.074219 147.316406 C 199.175781 147.109375 198.34375 146.972656 197.308594 146.902344 C 195.03125 146.625 193.234375 146.417969 191.507812 146.28125 C 190.195312 146.210938 188.605469 146.140625 187.085938 146.140625 C 185.632812 146.140625 184.390625 146.210938 183.148438 146.28125 C 180.3125 146.488281 177.414062 147.039062 174.789062 147.523438 C 173.683594 147.800781 172.160156 148.144531 170.710938 148.628906 C 169.8125 148.90625 168.914062 149.25 168.015625 149.597656 C 167.601562 149.734375 167.1875 149.941406 166.773438 150.082031 C 166.011719 150.355469 165.253906 150.632812 164.492188 150.910156 C 163.800781 151.1875 163.113281 151.394531 162.351562 151.667969 C 161.175781 152.082031 160.003906 152.636719 159.035156 153.121094 C 158.550781 153.394531 158 153.671875 157.515625 153.949219 C 157.378906 154.019531 157.308594 154.15625 157.171875 154.226562 C 157.238281 154.15625 157.308594 154.085938 157.308594 154.085938 C 156.066406 155.332031 154.753906 156.503906 153.507812 157.75 C 152.816406 158.507812 152.128906 159.199219 151.4375 160.027344 C 150.8125 160.789062 150.332031 161.546875 149.777344 162.308594 C 148.742188 163.828125 147.773438 165.347656 146.808594 166.9375 C 145.425781 169.425781 144.320312 171.980469 143.214844 174.605469 C 142.109375 177.160156 141.28125 179.789062 140.453125 182.414062 C 139.484375 186.003906 138.929688 189.667969 138.035156 193.257812 C 137.757812 194.363281 137.550781 195.46875 137.34375 196.574219 C 137.066406 197.75 136.859375 198.992188 136.722656 200.238281 C 136.652344 200.859375 136.582031 201.480469 136.511719 202.171875 C 136.445312 202.722656 136.445312 203.277344 136.375 203.761719 C 136.238281 204.796875 136.097656 205.902344 135.960938 206.9375 C 135.753906 208.25 135.546875 209.496094 135.132812 210.738281 C 134.71875 211.914062 133.820312 212.878906 132.644531 213.363281 C 132.09375 213.640625 131.46875 213.777344 130.847656 213.914062 C 128.707031 214.398438 126.566406 214.398438 124.355469 214.675781 C 123.179688 214.8125 122.003906 214.953125 120.832031 215.019531 C 119.726562 215.089844 118.621094 215.160156 117.515625 215.296875 C 115.304688 215.503906 113.164062 215.78125 110.953125 215.851562 C 109.847656 215.917969 108.742188 215.988281 107.566406 215.988281 C 106.597656 215.988281 105.632812 216.058594 104.664062 216.058594 C 103.492188 216.125 102.246094 216.195312 101.074219 216.265625 C 99.898438 216.332031 98.792969 216.332031 97.617188 216.402344 C 96.445312 216.472656 95.269531 216.472656 94.09375 216.472656 C 92.78125 216.472656 91.46875 216.472656 90.15625 216.332031 C 89.328125 216.265625 88.566406 216.195312 87.738281 216.058594 C 87.53125 216.125 87.324219 216.195312 87.117188 216.195312 C 86.839844 216.265625 86.5625 216.332031 86.289062 216.332031 C 85.875 216.332031 85.390625 216.402344 84.976562 216.265625 C 84.492188 216.125 84.078125 215.988281 83.664062 215.78125 C 83.109375 215.710938 82.488281 215.503906 82.074219 215.160156 C 81.796875 214.953125 81.519531 214.675781 81.246094 214.46875 C 80.484375 213.847656 80.070312 213.019531 79.933594 212.050781 C 79.308594 211.429688 79.308594 210.667969 79.308594 209.910156 C 79.308594 209.148438 79.378906 208.390625 79.519531 207.628906 C 79.519531 207.351562 79.585938 207.078125 79.585938 206.800781 C 79.519531 206.59375 79.449219 206.316406 79.449219 206.039062 C 79.449219 205.902344 79.449219 205.832031 79.449219 205.695312 C 79.449219 205.488281 79.449219 205.28125 79.449219 205.074219 C 79.449219 204.382812 79.519531 203.691406 79.519531 202.929688 L 79.519531 201.757812 C 79.519531 200.789062 79.585938 199.753906 79.585938 198.71875 C 79.585938 197.957031 79.519531 197.128906 79.449219 196.367188 C 79.449219 196.023438 79.378906 195.609375 79.378906 195.261719 C 79.242188 192.984375 79.308594 190.703125 79.378906 188.492188 C 79.378906 187.800781 79.449219 187.179688 79.449219 186.488281 C 79.449219 185.9375 79.449219 185.382812 79.519531 184.898438 C 79.519531 183.792969 79.585938 182.757812 79.65625 181.652344 L 79.65625 181.375 C 79.726562 179.027344 79.792969 177.023438 79.726562 175.160156 C 79.65625 174.121094 79.726562 173.085938 79.726562 172.117188 C 79.726562 171.636719 79.726562 171.152344 79.792969 170.597656 C 79.792969 170.046875 79.863281 169.492188 79.863281 169.011719 L 79.863281 168.113281 C 79.863281 166.246094 79.933594 164.382812 79.863281 162.515625 C 79.863281 162.03125 79.863281 161.480469 79.863281 160.996094 C 79.863281 160.304688 79.863281 159.613281 79.863281 158.921875 C 79.863281 157.816406 79.792969 156.644531 79.792969 155.191406 C 79.792969 154.085938 79.863281 152.914062 79.933594 151.808594 C 80 150.632812 80.070312 149.390625 80.070312 148.214844 C 80.070312 146.003906 80.207031 143.792969 80.347656 141.652344 L 80.414062 140.617188 C 80.414062 139.855469 80.414062 139.027344 80.414062 138.265625 C 80.414062 137.574219 80.414062 136.953125 80.414062 136.261719 C 80.414062 135.574219 80.484375 134.882812 80.484375 134.191406 C 80.554688 133.292969 80.554688 132.394531 80.554688 131.496094 C 80.554688 131.152344 80.554688 130.804688 80.554688 130.460938 C 80.554688 129.214844 80.554688 127.902344 80.691406 126.589844 C 80.761719 126.039062 80.832031 125.417969 80.832031 124.863281 C 80.898438 124.171875 80.96875 123.480469 81.039062 122.792969 C 81.105469 121.480469 81.105469 120.097656 81.105469 118.507812 L 81.105469 117.75 C 81.105469 117.195312 81.105469 116.644531 81.105469 116.089844 C 81.105469 115.121094 81.175781 114.226562 81.246094 113.257812 L 81.246094 113.121094 C 81.3125 112.429688 81.867188 111.738281 82.351562 111.390625 C 82.765625 111.117188 83.316406 110.976562 83.800781 110.976562 C 83.9375 110.976562 84.144531 110.976562 84.285156 111.046875 C 84.285156 111.046875 84.355469 111.046875 84.355469 111.046875 C 84.5625 110.976562 84.769531 110.910156 84.90625 110.910156 L 84.976562 110.910156 C 85.804688 110.976562 86.703125 110.976562 87.53125 110.976562 C 88.429688 110.976562 89.398438 111.046875 90.296875 111.117188 C 91.125 111.183594 91.953125 111.253906 92.714844 111.324219 C 93.335938 111.390625 93.886719 111.390625 94.507812 111.460938 C 95.0625 111.460938 95.613281 111.460938 96.097656 111.460938 C 96.789062 111.460938 97.480469 111.460938 98.171875 111.460938 C 98.929688 111.460938 99.621094 111.460938 100.382812 111.460938 C 100.796875 111.460938 101.140625 111.460938 101.554688 111.460938 C 101.96875 111.460938 102.316406 111.460938 102.730469 111.460938 C 103.007812 111.460938 103.285156 111.460938 103.558594 111.460938 C 103.90625 111.460938 104.25 111.460938 104.597656 111.460938 C 105.21875 111.460938 105.839844 111.460938 106.460938 111.460938 C 109.15625 111.460938 111.851562 111.390625 114.613281 111.390625 C 116.132812 111.390625 117.652344 111.324219 119.171875 111.253906 C 120.070312 111.253906 120.96875 111.183594 121.867188 111.183594 C 124.214844 111.117188 126.632812 111.117188 128.984375 111.117188 C 131.675781 111.117188 134.511719 111.117188 137.273438 110.976562 C 140.035156 110.910156 142.800781 110.839844 144.871094 110.839844 L 145.5625 110.839844 C 146.324219 110.839844 147.082031 110.839844 147.84375 110.839844 C 148.050781 110.839844 148.257812 110.839844 148.464844 110.839844 L 149.292969 110.839844 C 149.847656 110.839844 150.46875 110.839844 151.023438 110.839844 C 151.367188 110.839844 151.78125 110.839844 152.128906 110.839844 C 153.230469 110.839844 154.335938 110.769531 155.511719 110.703125 C 156.894531 110.632812 158.34375 110.5625 159.796875 110.5625 C 160.210938 110.5625 160.625 110.5625 161.039062 110.5625 C 163.042969 110.5625 165.183594 110.632812 167.324219 110.703125 L 168.363281 110.769531 C 169.328125 110.839844 170.296875 110.839844 171.195312 110.910156 C 172.300781 110.910156 173.40625 110.910156 174.511719 110.910156 L 174.925781 110.910156 C 176.167969 110.910156 177.480469 110.976562 178.65625 110.976562 C 179.96875 111.046875 181.28125 111.046875 182.59375 111.046875 C 184.597656 111.046875 186.671875 111.117188 188.605469 111.183594 L 190.332031 111.253906 C 192.472656 111.324219 194.613281 111.324219 196.617188 111.324219 L 199.933594 111.324219 C 204.21875 111.324219 208.640625 111.324219 212.992188 111.253906 L 215.410156 111.253906 C 217.136719 111.253906 218.863281 111.253906 220.660156 111.183594 C 220.867188 111.183594 221.074219 111.183594 221.214844 111.183594 C 221.695312 111.183594 222.179688 111.183594 222.664062 111.183594 C 223.078125 111.183594 223.5625 111.183594 223.976562 111.183594 L 224.183594 111.183594 C 224.667969 111.183594 225.082031 111.183594 225.566406 111.183594 C 226.464844 111.183594 227.363281 111.183594 228.261719 111.183594 L 228.882812 111.183594 C 229.574219 111.183594 230.261719 111.183594 231.023438 111.183594 C 231.300781 111.183594 231.574219 111.183594 231.851562 111.183594 C 232.40625 111.183594 233.027344 111.183594 233.578125 111.117188 C 234.339844 111.117188 235.097656 111.117188 235.789062 111.046875 C 237.101562 111.046875 238.414062 110.976562 239.660156 110.910156 C 240.832031 110.839844 242.007812 110.839844 243.183594 110.769531 L 244.425781 110.769531 C 246.359375 110.703125 248.433594 110.703125 250.367188 110.703125 C 250.921875 110.703125 251.542969 110.703125 252.09375 110.703125 C 252.785156 110.703125 253.476562 110.703125 254.167969 110.703125 L 254.375 110.703125 C 255.066406 110.703125 255.757812 110.703125 256.445312 110.703125 C 256.929688 110.703125 257.414062 110.703125 257.898438 110.703125 C 260.246094 110.703125 262.804688 110.769531 265.359375 110.910156 C 268.121094 111.046875 270.332031 111.117188 272.335938 111.117188 L 277.519531 111.117188 C 278.277344 111.117188 279.039062 111.117188 279.796875 111.117188 C 280.074219 111.117188 280.28125 111.117188 280.558594 111.117188 C 282.628906 111.117188 284.773438 111.253906 286.636719 111.324219 C 286.5 111.324219 286.359375 111.324219 286.222656 111.324219 C 286.5 111.324219 286.777344 111.324219 287.050781 111.390625 C 287.464844 111.390625 287.882812 111.460938 288.296875 111.460938 C 288.777344 111.460938 289.195312 111.53125 289.675781 111.53125 C 289.816406 111.53125 290.023438 111.53125 290.230469 111.53125 C 290.4375 111.53125 290.714844 111.53125 290.921875 111.597656 C 290.988281 111.597656 290.988281 111.597656 291.058594 111.597656 C 291.128906 111.597656 291.195312 111.597656 291.265625 111.597656 C 291.542969 111.597656 291.75 111.667969 292.027344 111.738281 C 292.09375 111.738281 292.164062 111.738281 292.164062 111.738281 C 292.234375 111.738281 292.300781 111.738281 292.371094 111.738281 C 293.683594 111.738281 294.859375 112.773438 294.996094 114.15625 L 294.996094 114.707031 L 295.066406 115.191406 C 295.136719 116.019531 295.273438 116.917969 295.273438 117.75 C 295.757812 119.0625 295.757812 120.097656 295.6875 121.132812 Z M 82.144531 107.039062 C 82.558594 107.453125 83.039062 107.660156 83.457031 107.730469 C 85.734375 108.007812 88.292969 108.144531 91.402344 108.144531 C 92.851562 108.144531 94.371094 108.214844 95.960938 108.214844 C 96.859375 108.214844 97.757812 108.214844 98.722656 108.214844 C 100.65625 108.214844 102.59375 108.074219 104.457031 107.9375 C 105.21875 107.867188 105.910156 107.867188 106.667969 107.800781 C 107.84375 107.730469 109.015625 107.660156 110.121094 107.59375 C 111.367188 107.523438 112.609375 107.386719 113.785156 107.316406 C 114.820312 107.246094 115.855469 107.246094 116.894531 107.179688 C 118.480469 107.109375 120.003906 107.039062 121.589844 106.96875 C 123.941406 106.832031 126.425781 106.761719 129.46875 106.695312 C 130.433594 106.695312 131.46875 106.695312 132.4375 106.625 C 133.820312 106.625 135.269531 106.625 136.652344 106.554688 C 137.828125 106.554688 139 106.488281 140.175781 106.417969 C 141.625 106.347656 143.078125 106.347656 144.527344 106.28125 L 144.734375 106.28125 C 145.839844 106.28125 147.015625 106.210938 148.121094 106.210938 L 148.328125 106.210938 C 148.671875 106.210938 149.019531 106.210938 149.363281 106.210938 C 149.777344 106.210938 150.261719 106.210938 150.675781 106.210938 C 151.160156 106.210938 151.644531 106.210938 152.058594 106.210938 L 153.507812 106.210938 C 155.652344 106.140625 157.792969 106.140625 159.933594 106.003906 C 160.832031 105.933594 161.730469 105.933594 162.558594 105.867188 C 164.148438 105.796875 165.804688 105.65625 167.394531 105.65625 C 168.292969 105.589844 169.261719 105.589844 170.160156 105.519531 C 171.746094 105.449219 173.476562 105.382812 175.0625 105.3125 C 176.929688 105.3125 178.792969 105.242188 180.867188 105.242188 C 183.5625 105.242188 186.460938 105.242188 190.125 105.3125 C 190.953125 105.3125 191.78125 105.3125 192.613281 105.382812 C 194.339844 105.382812 196.066406 105.449219 197.792969 105.449219 L 198.277344 105.449219 C 199.105469 105.449219 199.933594 105.449219 200.832031 105.449219 L 201.453125 105.449219 C 202.421875 105.449219 203.320312 105.449219 204.285156 105.449219 C 204.703125 105.449219 205.046875 105.449219 205.460938 105.449219 C 205.875 105.449219 206.222656 105.449219 206.636719 105.449219 C 208.085938 105.449219 209.46875 105.449219 210.917969 105.382812 C 211.679688 105.382812 212.371094 105.382812 213.128906 105.382812 C 214.234375 105.382812 215.410156 105.3125 216.515625 105.3125 C 217.828125 105.242188 219.210938 105.242188 220.589844 105.242188 L 220.660156 105.242188 C 221.28125 105.242188 221.835938 105.242188 222.457031 105.242188 C 223.007812 105.242188 223.5625 105.242188 224.183594 105.242188 L 228.328125 105.242188 C 230.332031 105.242188 232.335938 105.3125 234.269531 105.382812 L 235.722656 105.449219 C 237.101562 105.519531 238.484375 105.519531 239.796875 105.519531 C 240.625 105.519531 241.386719 105.519531 242.214844 105.589844 C 244.082031 105.65625 246.085938 105.726562 248.226562 105.796875 L 249.125 105.867188 C 250.710938 105.933594 252.300781 106.074219 253.890625 106.140625 C 254.652344 106.140625 255.410156 106.210938 256.171875 106.210938 C 257.207031 106.210938 258.242188 106.28125 259.347656 106.347656 C 261.488281 106.488281 263.632812 106.554688 265.703125 106.625 C 267.222656 106.695312 268.675781 106.761719 270.195312 106.832031 C 271.921875 106.96875 273.71875 107.039062 275.652344 107.179688 C 277.519531 107.316406 279.453125 107.453125 281.871094 107.730469 C 283.804688 107.9375 285.945312 108.144531 288.019531 108.214844 L 288.089844 108.214844 C 288.710938 108.214844 289.402344 107.730469 289.816406 107.316406 C 290.09375 106.96875 290.300781 106.625 290.4375 106.210938 C 290.644531 106.003906 290.78125 105.796875 290.921875 105.589844 C 291.265625 104.898438 291.265625 104.277344 291.128906 103.515625 C 291.058594 103.101562 290.921875 102.617188 290.78125 102.203125 C 290.714844 101.925781 290.644531 101.652344 290.507812 101.304688 L 290.644531 101.859375 C 290.230469 99.925781 289.46875 98.195312 288.847656 96.746094 C 288.226562 95.503906 287.742188 94.398438 287.121094 93.429688 C 286.636719 92.601562 286.152344 91.703125 285.53125 90.527344 C 284.773438 89.007812 283.734375 87.625 282.769531 86.246094 C 282.5625 85.898438 282.285156 85.625 282.078125 85.277344 C 281.664062 84.65625 281.179688 83.964844 280.765625 83.34375 C 279.9375 82.101562 279.105469 80.855469 278.210938 79.683594 C 277.585938 78.851562 276.894531 78.023438 276.273438 77.265625 C 275.582031 76.433594 274.824219 75.535156 274.132812 74.570312 C 273.855469 74.15625 273.582031 73.742188 273.304688 73.324219 C 272.957031 72.84375 272.613281 72.359375 272.269531 71.875 C 271.507812 70.839844 270.609375 69.800781 269.78125 68.902344 C 269.089844 68.074219 268.328125 67.316406 267.570312 66.484375 L 267.429688 66.347656 C 267.222656 66.140625 267.015625 65.933594 266.808594 65.726562 C 266.257812 65.171875 265.703125 64.550781 265.152344 64 C 263.699219 62.546875 262.042969 61.304688 260.386719 60.128906 L 259.902344 59.785156 C 257.757812 58.195312 255.824219 56.8125 254.027344 55.5 L 253.339844 55.019531 C 252.507812 54.394531 251.609375 53.773438 250.710938 53.222656 C 249.746094 52.601562 248.710938 52.046875 247.671875 51.496094 L 247.535156 51.425781 C 245.808594 50.457031 243.941406 49.558594 242.214844 48.730469 L 240.972656 48.109375 C 238.898438 47.074219 236.550781 45.96875 234.132812 45 C 231.851562 44.101562 229.574219 43.203125 227.292969 42.445312 C 225.152344 41.753906 222.941406 41.132812 220.589844 40.578125 C 218.65625 40.09375 216.515625 39.75 214.027344 39.472656 C 211.609375 39.199219 209.261719 38.988281 206.636719 38.851562 L 205.945312 38.78125 C 203.664062 38.644531 201.246094 38.4375 198.898438 38.367188 L 197.863281 38.367188 C 196.964844 38.367188 196.136719 38.300781 195.238281 38.300781 L 194.820312 38.300781 C 193.714844 38.300781 192.472656 38.367188 191.230469 38.4375 C 188.671875 38.574219 186.117188 38.78125 183.5625 38.921875 C 181.074219 39.058594 178.65625 39.265625 176.238281 39.613281 C 173.542969 39.957031 170.917969 40.371094 168.636719 40.71875 L 167.394531 40.925781 C 165.253906 41.269531 162.972656 41.617188 160.761719 42.097656 C 158.550781 42.582031 156.273438 43.203125 154.128906 43.824219 L 153.371094 44.035156 C 150.746094 44.722656 148.257812 45.484375 145.910156 46.3125 C 143.285156 47.210938 140.933594 48.109375 138.792969 49.007812 C 136.375 50.042969 133.957031 51.21875 131.609375 52.394531 L 131.46875 52.460938 C 130.363281 53.015625 129.191406 53.636719 128.015625 54.328125 C 127.046875 54.878906 126.011719 55.570312 124.839844 56.398438 C 123.734375 57.160156 122.695312 57.917969 121.660156 58.75 C 120.761719 59.371094 119.863281 60.0625 118.964844 60.683594 C 117.308594 61.925781 115.511719 63.101562 113.851562 64.277344 L 112.609375 65.171875 C 110.605469 66.554688 108.671875 68.144531 106.945312 69.734375 C 104.941406 71.460938 102.9375 73.324219 101.003906 75.261719 C 99.414062 76.847656 97.617188 78.714844 95.960938 80.71875 C 95.476562 81.339844 94.992188 81.890625 94.507812 82.445312 C 93.542969 83.550781 92.644531 84.726562 91.675781 85.898438 C 90.847656 86.9375 90.15625 87.902344 89.535156 88.730469 C 88.773438 89.769531 88.085938 90.734375 87.460938 91.773438 C 86.148438 93.914062 84.976562 95.847656 83.9375 97.714844 C 82.902344 99.507812 82.003906 101.511719 81.175781 103.65625 C 80.96875 104.277344 80.761719 104.898438 81.039062 105.65625 C 81.246094 106.210938 81.660156 106.695312 82.144531 107.039062 Z M 82.144531 107.039062 " fill-opacity="1" fill-rule="nonzero"/></g><g transform="matrix(1, 0, 0, 1, 0, 175)"><g clip-path="url(#cb0fa267ef)"><g clip-path="url(#d8e77eb0da)"><g fill="#2e3192" fill-opacity="1"><g transform="translate(8.303419, 129.781647)"><g><path d="M 14.5 1.234375 C 12.9375 2.265625 11.125 3.101562 9.0625 3.75 C 7.007812 4.394531 5.085938 4.21875 3.296875 3.21875 C 1.492188 2.207031 0.375 0.976562 -0.0625 -0.46875 C -0.5 -1.925781 -0.3125 -3.523438 0.5 -5.265625 C 1.144531 -6.660156 2.054688 -7.882812 3.234375 -8.9375 C 4.410156 -9.988281 5.609375 -11.035156 6.828125 -12.078125 C 8.046875 -13.117188 9.132812 -14.21875 10.09375 -15.375 C 11.050781 -16.539062 11.632812 -17.929688 11.84375 -19.546875 C 12.070312 -21.015625 11.878906 -22.164062 11.265625 -23 C 10.648438 -23.832031 9.851562 -24.523438 8.875 -25.078125 C 7.894531 -25.628906 6.914062 -26.210938 5.9375 -26.828125 C 4.238281 -27.972656 2.875 -29.394531 1.84375 -31.09375 C 0.820312 -32.800781 0.320312 -34.734375 0.34375 -36.890625 C 0.3125 -40.316406 1.34375 -43.21875 3.4375 -45.59375 C 5.539062 -47.976562 7.957031 -49.976562 10.6875 -51.59375 C 11.65625 -52.144531 12.816406 -52.726562 14.171875 -53.34375 C 15.523438 -53.957031 16.894531 -54.394531 18.28125 -54.65625 C 19.675781 -54.914062 21.007812 -54.890625 22.28125 -54.578125 C 23.5625 -54.265625 24.617188 -53.457031 25.453125 -52.15625 C 26.566406 -50.476562 26.890625 -48.96875 26.421875 -47.625 C 25.960938 -46.28125 25.054688 -45.023438 23.703125 -43.859375 C 22.359375 -42.691406 20.925781 -41.539062 19.40625 -40.40625 C 17.882812 -39.269531 16.625 -38.082031 15.625 -36.84375 C 14.632812 -35.601562 14.25 -34.226562 14.46875 -32.71875 C 14.695312 -31.476562 15.320312 -30.472656 16.34375 -29.703125 C 17.363281 -28.941406 18.488281 -28.285156 19.71875 -27.734375 C 20.957031 -27.179688 21.96875 -26.507812 22.75 -25.71875 C 23.957031 -24.445312 24.78125 -23.003906 25.21875 -21.390625 C 25.664062 -19.773438 25.832031 -18.113281 25.71875 -16.40625 C 25.46875 -12.769531 24.28125 -9.421875 22.15625 -6.359375 C 20.03125 -3.296875 17.476562 -0.765625 14.5 1.234375 Z M 14.5 1.234375 "/></g></g></g></g><g fill="#2e3192" fill-opacity="1"><g transform="translate(41.081694, 121.973928)"><g><path d="M 11.65625 -6.609375 C 8.644531 -6.535156 6.109375 -7.234375 4.046875 -8.703125 C 1.984375 -10.171875 0.398438 -12.113281 -0.703125 -14.53125 C -1.816406 -16.945312 -2.503906 -19.578125 -2.765625 -22.421875 C -3.035156 -25.265625 -2.882812 -28.046875 -2.3125 -30.765625 C -1.75 -33.484375 -0.832031 -35.867188 0.4375 -37.921875 C 2.050781 -40.484375 4.320312 -42.597656 7.25 -44.265625 C 10.175781 -45.929688 13.21875 -46.625 16.375 -46.34375 C 18 -46.207031 19.570312 -45.691406 21.09375 -44.796875 C 22.625 -43.910156 23.90625 -42.789062 24.9375 -41.4375 C 25.96875 -40.09375 26.578125 -38.617188 26.765625 -37.015625 C 26.953125 -35.410156 26.5625 -33.78125 25.59375 -32.125 C 24.675781 -30.59375 23.40625 -29.34375 21.78125 -28.375 C 20.164062 -27.414062 18.554688 -26.617188 16.953125 -25.984375 C 15.867188 -25.578125 14.742188 -25.226562 13.578125 -24.9375 C 12.410156 -24.644531 11.457031 -24.15625 10.71875 -23.46875 C 9.988281 -22.78125 9.71875 -21.617188 9.90625 -19.984375 C 10.113281 -18.273438 10.578125 -17.296875 11.296875 -17.046875 C 12.023438 -16.804688 12.851562 -17.019531 13.78125 -17.6875 C 14.707031 -18.351562 15.648438 -19.195312 16.609375 -20.21875 C 17.578125 -21.25 18.453125 -22.226562 19.234375 -23.15625 C 20.023438 -24.082031 20.585938 -24.675781 20.921875 -24.9375 C 22.734375 -26.1875 24.144531 -26.519531 25.15625 -25.9375 C 26.164062 -25.363281 26.847656 -24.320312 27.203125 -22.8125 C 27.566406 -21.300781 27.632812 -19.722656 27.40625 -18.078125 C 27.1875 -16.429688 26.753906 -15.125 26.109375 -14.15625 C 24.554688 -11.863281 22.441406 -10.050781 19.765625 -8.71875 C 17.097656 -7.394531 14.394531 -6.691406 11.65625 -6.609375 Z M 13.21875 -31.34375 C 13.863281 -31.269531 14.660156 -31.4375 15.609375 -31.84375 C 16.554688 -32.25 17.316406 -32.78125 17.890625 -33.4375 C 18.472656 -34.101562 18.554688 -34.71875 18.140625 -35.28125 C 16.910156 -35.238281 15.847656 -34.875 14.953125 -34.1875 C 14.066406 -33.5 13.488281 -32.550781 13.21875 -31.34375 Z M 13.21875 -31.34375 "/></g></g></g><g fill="#2e3192" fill-opacity="1"><g transform="translate(70.005084, 115.916072)"><g><path d="M 49.78125 -2.59375 C 48.4375 -3.488281 47.242188 -4.800781 46.203125 -6.53125 C 45.160156 -8.269531 44.207031 -10.160156 43.34375 -12.203125 C 42.476562 -14.242188 41.679688 -16.234375 40.953125 -18.171875 C 40.234375 -20.109375 39.578125 -21.804688 38.984375 -23.265625 C 39.078125 -23.023438 38.738281 -22.492188 37.96875 -21.671875 C 37.195312 -20.859375 36.285156 -19.960938 35.234375 -18.984375 C 34.191406 -18.015625 33.226562 -17.144531 32.34375 -16.375 C 31.46875 -15.613281 30.941406 -15.1875 30.765625 -15.09375 C 28.867188 -14.125 27.300781 -13.929688 26.0625 -14.515625 C 24.832031 -15.109375 23.796875 -16.109375 22.953125 -17.515625 C 22.109375 -18.929688 21.304688 -20.320312 20.546875 -21.6875 C 19.410156 -23.882812 18.171875 -25.0625 16.828125 -25.21875 C 15.492188 -25.382812 13.953125 -24.453125 12.203125 -22.421875 C 10.835938 -20.867188 10.09375 -19.0625 9.96875 -17 C 9.851562 -14.945312 9.945312 -12.84375 10.25 -10.6875 C 10.5625 -8.53125 10.660156 -6.488281 10.546875 -4.5625 C 10.515625 -2.070312 9.984375 -0.53125 8.953125 0.0625 C 7.921875 0.65625 6.785156 0.515625 5.546875 -0.359375 C 4.316406 -1.234375 3.242188 -2.597656 2.328125 -4.453125 C 0.929688 -7.566406 -0.0546875 -10.929688 -0.640625 -14.546875 C -1.222656 -18.171875 -1.628906 -21.6875 -1.859375 -25.09375 C -1.960938 -26.738281 -2.125 -28.660156 -2.34375 -30.859375 C -2.5625 -33.066406 -2.546875 -35.238281 -2.296875 -37.375 C -2.054688 -39.507812 -1.375 -41.269531 -0.25 -42.65625 C 1.050781 -44.3125 2.273438 -45.039062 3.421875 -44.84375 C 4.566406 -44.65625 5.570312 -43.953125 6.4375 -42.734375 C 7.3125 -41.523438 8.003906 -40.140625 8.515625 -38.578125 C 9.035156 -37.023438 9.304688 -35.710938 9.328125 -34.640625 C 10.515625 -36.585938 12.132812 -38.039062 14.1875 -39 C 16.25 -39.96875 18.425781 -40.070312 20.71875 -39.3125 C 21.988281 -38.925781 23.097656 -38.289062 24.046875 -37.40625 C 25.003906 -36.519531 25.816406 -35.519531 26.484375 -34.40625 C 27.046875 -33.59375 27.484375 -32.632812 27.796875 -31.53125 C 28.117188 -30.425781 28.644531 -29.539062 29.375 -28.875 C 30.851562 -30.175781 32.347656 -31.347656 33.859375 -32.390625 C 35.367188 -33.429688 36.960938 -34.003906 38.640625 -34.109375 C 40.316406 -34.222656 42.082031 -33.554688 43.9375 -32.109375 C 45.601562 -30.804688 47.035156 -29.171875 48.234375 -27.203125 C 49.441406 -25.234375 50.5 -23.179688 51.40625 -21.046875 C 52.320312 -18.910156 53.078125 -16.867188 53.671875 -14.921875 C 53.878906 -14.304688 54.125 -13.332031 54.40625 -12 C 54.695312 -10.675781 54.898438 -9.253906 55.015625 -7.734375 C 55.128906 -6.222656 55.082031 -4.878906 54.875 -3.703125 C 54.664062 -2.523438 54.171875 -1.769531 53.390625 -1.4375 C 52.609375 -1.101562 51.40625 -1.488281 49.78125 -2.59375 Z M 49.78125 -2.59375 "/></g></g></g><g fill="#2e3192" fill-opacity="1"><g transform="translate(121.481867, 108.838983)"><g/></g></g><g fill="#2e3192" fill-opacity="1"><g transform="translate(140.640857, 106.967109)"><g><path d="M -1.171875 -45.046875 C -2.046875 -46.378906 -2.394531 -47.71875 -2.21875 -49.0625 C -2.039062 -50.40625 -1.546875 -51.519531 -0.734375 -52.40625 C 0.078125 -53.289062 1.070312 -53.71875 2.25 -53.6875 C 3.425781 -53.65625 4.582031 -52.921875 5.71875 -51.484375 C 6.90625 -50.054688 7.410156 -48.640625 7.234375 -47.234375 C 7.054688 -45.828125 6.5 -44.675781 5.5625 -43.78125 C 4.625 -42.882812 3.515625 -42.476562 2.234375 -42.5625 C 0.953125 -42.65625 -0.179688 -43.484375 -1.171875 -45.046875 Z M 9.171875 -1.78125 C 7.804688 -0.65625 6.632812 -0.242188 5.65625 -0.546875 C 4.6875 -0.847656 3.882812 -1.570312 3.25 -2.71875 C 2.613281 -3.875 2.09375 -5.195312 1.6875 -6.6875 C 1.289062 -8.175781 1.007812 -9.59375 0.84375 -10.9375 C 0.675781 -12.289062 0.535156 -13.28125 0.421875 -13.90625 C 0.191406 -16.050781 0.0390625 -18.210938 -0.03125 -20.390625 C -0.113281 -22.566406 -0.179688 -24.734375 -0.234375 -26.890625 C -0.253906 -28.015625 -0.320312 -29.285156 -0.4375 -30.703125 C -0.550781 -32.117188 -0.515625 -33.484375 -0.328125 -34.796875 C -0.148438 -36.117188 0.34375 -37.222656 1.15625 -38.109375 C 2.488281 -39.671875 3.664062 -40.410156 4.6875 -40.328125 C 5.707031 -40.253906 6.578125 -39.675781 7.296875 -38.59375 C 8.023438 -37.507812 8.625 -36.207031 9.09375 -34.6875 C 9.5625 -33.175781 9.929688 -31.6875 10.203125 -30.21875 C 10.472656 -28.757812 10.671875 -27.65625 10.796875 -26.90625 C 11.304688 -24.351562 11.566406 -21.789062 11.578125 -19.21875 C 11.597656 -16.65625 11.523438 -14.066406 11.359375 -11.453125 C 11.304688 -10.554688 11.265625 -9.472656 11.234375 -8.203125 C 11.210938 -6.941406 11.070312 -5.726562 10.8125 -4.5625 C 10.550781 -3.40625 10.003906 -2.476562 9.171875 -1.78125 Z M 9.171875 -1.78125 "/></g></g></g><g fill="#2e3192" fill-opacity="1"><g transform="translate(150.236606, 105.700379)"><g><path d="M 49.796875 2.4375 C 48.535156 1.414062 47.476562 -0.0078125 46.625 -1.84375 C 45.769531 -3.675781 45.015625 -5.648438 44.359375 -7.765625 C 43.703125 -9.890625 43.113281 -11.953125 42.59375 -13.953125 C 42.070312 -15.953125 41.585938 -17.703125 41.140625 -19.203125 C 41.210938 -18.960938 40.820312 -18.472656 39.96875 -17.734375 C 39.113281 -17.003906 38.113281 -16.207031 36.96875 -15.34375 C 35.832031 -14.476562 34.785156 -13.707031 33.828125 -13.03125 C 32.878906 -12.351562 32.316406 -11.976562 32.140625 -11.90625 C 30.140625 -11.132812 28.554688 -11.101562 27.390625 -11.8125 C 26.234375 -12.53125 25.304688 -13.632812 24.609375 -15.125 C 23.921875 -16.613281 23.265625 -18.078125 22.640625 -19.515625 C 21.722656 -21.804688 20.609375 -23.097656 19.296875 -23.390625 C 17.984375 -23.691406 16.351562 -22.914062 14.40625 -21.0625 C 12.882812 -19.664062 11.957031 -17.945312 11.625 -15.90625 C 11.300781 -13.875 11.179688 -11.769531 11.265625 -9.59375 C 11.359375 -7.425781 11.25 -5.390625 10.9375 -3.484375 C 10.664062 -1.003906 9.988281 0.472656 8.90625 0.953125 C 7.820312 1.441406 6.707031 1.1875 5.5625 0.1875 C 4.414062 -0.800781 3.484375 -2.265625 2.765625 -4.203125 C 1.691406 -7.441406 1.046875 -10.890625 0.828125 -14.546875 C 0.617188 -18.203125 0.570312 -21.738281 0.6875 -25.15625 C 0.75 -26.8125 0.78125 -28.742188 0.78125 -30.953125 C 0.78125 -33.160156 1.007812 -35.316406 1.46875 -37.421875 C 1.925781 -39.523438 2.796875 -41.207031 4.078125 -42.46875 C 5.523438 -43.976562 6.804688 -44.578125 7.921875 -44.265625 C 9.046875 -43.960938 9.976562 -43.164062 10.71875 -41.875 C 11.46875 -40.582031 12.015625 -39.132812 12.359375 -37.53125 C 12.710938 -35.925781 12.851562 -34.585938 12.78125 -33.515625 C 14.15625 -35.335938 15.914062 -36.625 18.0625 -37.375 C 20.21875 -38.125 22.394531 -38.003906 24.59375 -37.015625 C 25.8125 -36.503906 26.847656 -35.757812 27.703125 -34.78125 C 28.554688 -33.800781 29.265625 -32.71875 29.828125 -31.53125 C 30.296875 -30.675781 30.632812 -29.679688 30.84375 -28.546875 C 31.050781 -27.421875 31.484375 -26.5 32.140625 -25.78125 C 33.742188 -26.914062 35.347656 -27.921875 36.953125 -28.796875 C 38.554688 -29.679688 40.195312 -30.097656 41.875 -30.046875 C 43.5625 -29.992188 45.253906 -29.144531 46.953125 -27.5 C 48.472656 -26.050781 49.734375 -24.285156 50.734375 -22.203125 C 51.734375 -20.117188 52.578125 -17.96875 53.265625 -15.75 C 53.960938 -13.539062 54.503906 -11.4375 54.890625 -9.4375 C 55.046875 -8.800781 55.195312 -7.804688 55.34375 -6.453125 C 55.5 -5.097656 55.554688 -3.660156 55.515625 -2.140625 C 55.484375 -0.617188 55.300781 0.710938 54.96875 1.859375 C 54.644531 3.003906 54.078125 3.703125 53.265625 3.953125 C 52.453125 4.210938 51.296875 3.707031 49.796875 2.4375 Z M 49.796875 2.4375 "/></g></g></g><g fill="#2e3192" fill-opacity="1"><g transform="translate(201.983014, 103.743093)"><g><path d="M 30.21875 0.234375 C 29.144531 -0.0234375 28.328125 -0.644531 27.765625 -1.625 C 27.210938 -2.613281 26.832031 -3.757812 26.625 -5.0625 C 26.425781 -6.363281 26.300781 -7.628906 26.25 -8.859375 C 26.207031 -10.085938 26.191406 -11.082031 26.203125 -11.84375 C 24.847656 -10.019531 23.132812 -8.472656 21.0625 -7.203125 C 19 -5.929688 16.84375 -5.132812 14.59375 -4.8125 C 12.351562 -4.488281 10.257812 -4.78125 8.3125 -5.6875 C 6.363281 -6.59375 4.769531 -8.285156 3.53125 -10.765625 C 2.351562 -13.304688 1.734375 -16.03125 1.671875 -18.9375 C 1.609375 -21.84375 2.003906 -24.726562 2.859375 -27.59375 C 3.710938 -30.457031 4.847656 -32.988281 6.265625 -35.1875 C 7.609375 -37.1875 9.234375 -38.960938 11.140625 -40.515625 C 13.054688 -42.078125 15.125 -43.175781 17.34375 -43.8125 C 19.570312 -44.457031 21.722656 -44.4375 23.796875 -43.75 C 25.867188 -43.0625 27.75 -41.515625 29.4375 -39.109375 C 30.425781 -37.703125 31.242188 -36.457031 31.890625 -35.375 C 32.546875 -34.289062 33.039062 -33.144531 33.375 -31.9375 C 33.707031 -30.738281 33.898438 -29.222656 33.953125 -27.390625 L 34.3125 -9.578125 C 34.300781 -8.878906 34.320312 -7.929688 34.375 -6.734375 C 34.425781 -5.535156 34.363281 -4.347656 34.1875 -3.171875 C 34.019531 -2.003906 33.632812 -1.078125 33.03125 -0.390625 C 32.425781 0.296875 31.488281 0.503906 30.21875 0.234375 Z M 18.421875 -21.3125 C 19.179688 -21.300781 19.976562 -21.71875 20.8125 -22.5625 C 21.644531 -23.40625 22.394531 -24.34375 23.0625 -25.375 C 23.738281 -26.40625 24.175781 -27.207031 24.375 -27.78125 C 25.019531 -29.15625 25.109375 -30.382812 24.640625 -31.46875 C 24.179688 -32.550781 23.191406 -32.785156 21.671875 -32.171875 C 20.648438 -31.804688 19.65625 -30.929688 18.6875 -29.546875 C 17.726562 -28.171875 17.054688 -26.976562 16.671875 -25.96875 C 16.347656 -24.96875 16.210938 -23.960938 16.265625 -22.953125 C 16.316406 -21.941406 17.035156 -21.394531 18.421875 -21.3125 Z M 18.421875 -21.3125 "/></g></g></g><g fill="#2e3192" fill-opacity="1"><g transform="translate(232.563069, 103.674361)"><g><path d="M 9.078125 37.296875 C 7.597656 35.503906 6.835938 33.375 6.796875 30.90625 C 6.765625 28.4375 6.941406 26.132812 7.328125 24 C 8.390625 18.300781 10.394531 13.015625 13.34375 8.140625 C 14.90625 5.515625 16.742188 3.003906 18.859375 0.609375 C 19.742188 -0.410156 20.832031 -1.445312 22.125 -2.5 C 23.425781 -3.5625 24.148438 -4.753906 24.296875 -6.078125 C 22.890625 -4.773438 21.296875 -3.546875 19.515625 -2.390625 C 17.734375 -1.234375 15.925781 -0.429688 14.09375 0.015625 C 12.269531 0.472656 10.503906 0.398438 8.796875 -0.203125 C 7.085938 -0.816406 5.601562 -2.207031 4.34375 -4.375 C 3.03125 -6.601562 2.328125 -8.984375 2.234375 -11.515625 C 2.148438 -14.054688 2.484375 -16.570312 3.234375 -19.0625 C 3.992188 -21.550781 4.972656 -23.835938 6.171875 -25.921875 C 7.640625 -28.285156 9.441406 -30.367188 11.578125 -32.171875 C 13.722656 -33.972656 16.097656 -35.1875 18.703125 -35.8125 C 21.304688 -36.4375 24.03125 -36.1875 26.875 -35.0625 C 30.03125 -33.925781 32.328125 -32.203125 33.765625 -29.890625 C 35.203125 -27.578125 36.128906 -24.984375 36.546875 -22.109375 C 36.972656 -19.234375 37.125 -16.347656 37 -13.453125 C 37.71875 -13.847656 38.847656 -14.425781 40.390625 -15.1875 C 41.929688 -15.945312 43.609375 -16.644531 45.421875 -17.28125 C 47.234375 -17.925781 48.984375 -18.351562 50.671875 -18.5625 C 52.359375 -18.78125 53.734375 -18.570312 54.796875 -17.9375 C 55.867188 -17.300781 56.410156 -16.066406 56.421875 -14.234375 C 56.453125 -12.640625 56.015625 -11.253906 55.109375 -10.078125 C 54.210938 -8.910156 53.132812 -7.890625 51.875 -7.015625 C 50.625 -6.140625 49.378906 -5.363281 48.140625 -4.6875 C 47.148438 -4.175781 46.148438 -3.679688 45.140625 -3.203125 C 44.140625 -2.734375 43.113281 -2.242188 42.0625 -1.734375 L 38.90625 0.046875 C 38.050781 0.566406 37.425781 0.957031 37.03125 1.21875 C 36.644531 1.476562 36.34375 1.804688 36.125 2.203125 C 35.914062 2.597656 35.65625 3.265625 35.34375 4.203125 C 34.46875 6.984375 33.75 9.84375 33.1875 12.78125 C 32.632812 15.726562 31.976562 18.617188 31.21875 21.453125 C 30.46875 24.285156 29.425781 26.988281 28.09375 29.5625 C 26.757812 32.132812 24.863281 34.488281 22.40625 36.625 C 21.125 37.738281 19.6875 38.625 18.09375 39.28125 C 16.507812 39.945312 14.929688 40.164062 13.359375 39.9375 C 11.785156 39.71875 10.359375 38.835938 9.078125 37.296875 Z M 21.765625 -14.109375 C 22.910156 -15.304688 23.957031 -16.664062 24.90625 -18.1875 C 25.863281 -19.707031 26.738281 -21.203125 27.53125 -22.671875 C 25.59375 -23.179688 23.691406 -22.9375 21.828125 -21.9375 C 19.960938 -20.945312 18.53125 -19.570312 17.53125 -17.8125 C 16.75 -16.457031 16.484375 -15.28125 16.734375 -14.28125 C 16.992188 -13.28125 17.59375 -12.703125 18.53125 -12.546875 C 19.476562 -12.398438 20.554688 -12.921875 21.765625 -14.109375 Z M 15.3125 30 C 16 30.175781 16.703125 29.75 17.421875 28.71875 C 18.148438 27.6875 18.847656 26.410156 19.515625 24.890625 C 20.179688 23.378906 20.707031 21.988281 21.09375 20.71875 C 21.488281 19.457031 21.726562 18.703125 21.8125 18.453125 C 22.007812 17.515625 22.148438 16.570312 22.234375 15.625 C 22.328125 14.6875 22.4375 13.75 22.5625 12.8125 C 22.28125 13.101562 21.722656 13.851562 20.890625 15.0625 C 20.054688 16.28125 19.160156 17.679688 18.203125 19.265625 C 17.253906 20.847656 16.414062 22.425781 15.6875 24 C 14.957031 25.570312 14.507812 26.914062 14.34375 28.03125 C 14.175781 29.15625 14.5 29.8125 15.3125 30 Z M 15.3125 30 "/></g></g></g><g fill="#2e3192" fill-opacity="1"><g transform="translate(284.065367, 107.036109)"><g><path d="M 13.109375 -2.796875 C 10.210938 -3.628906 8.003906 -5.054688 6.484375 -7.078125 C 4.960938 -9.097656 4.035156 -11.429688 3.703125 -14.078125 C 3.367188 -16.722656 3.5 -19.441406 4.09375 -22.234375 C 4.695312 -25.023438 5.675781 -27.628906 7.03125 -30.046875 C 8.394531 -32.460938 9.988281 -34.460938 11.8125 -36.046875 C 14.132812 -37.992188 16.941406 -39.320312 20.234375 -40.03125 C 23.523438 -40.75 26.628906 -40.5 29.546875 -39.28125 C 31.054688 -38.65625 32.40625 -37.6875 33.59375 -36.375 C 34.78125 -35.0625 35.664062 -33.609375 36.25 -32.015625 C 36.832031 -30.429688 36.96875 -28.84375 36.65625 -27.25 C 36.34375 -25.664062 35.476562 -24.222656 34.0625 -22.921875 C 32.726562 -21.742188 31.144531 -20.941406 29.3125 -20.515625 C 27.476562 -20.085938 25.703125 -19.8125 23.984375 -19.6875 C 22.828125 -19.625 21.644531 -19.628906 20.4375 -19.703125 C 19.238281 -19.773438 18.1875 -19.59375 17.28125 -19.15625 C 16.375 -18.726562 15.765625 -17.703125 15.453125 -16.078125 C 15.140625 -14.398438 15.289062 -13.332031 15.90625 -12.875 C 16.519531 -12.414062 17.367188 -12.363281 18.453125 -12.71875 C 19.535156 -13.082031 20.691406 -13.609375 21.921875 -14.296875 C 23.148438 -14.984375 24.28125 -15.648438 25.3125 -16.296875 C 26.34375 -16.941406 27.054688 -17.335938 27.453125 -17.484375 C 29.546875 -18.128906 30.988281 -18.023438 31.78125 -17.171875 C 32.582031 -16.316406 32.925781 -15.117188 32.8125 -13.578125 C 32.695312 -12.035156 32.285156 -10.507812 31.578125 -9 C 30.867188 -7.5 30.054688 -6.378906 29.140625 -5.640625 C 26.984375 -3.929688 24.429688 -2.84375 21.484375 -2.375 C 18.535156 -1.914062 15.742188 -2.054688 13.109375 -2.796875 Z M 22.015625 -25.90625 C 22.617188 -25.65625 23.4375 -25.582031 24.46875 -25.6875 C 25.5 -25.789062 26.390625 -26.066406 27.140625 -26.515625 C 27.890625 -26.972656 28.144531 -27.535156 27.90625 -28.203125 C 26.726562 -28.523438 25.609375 -28.492188 24.546875 -28.109375 C 23.484375 -27.722656 22.640625 -26.988281 22.015625 -25.90625 Z M 22.015625 -25.90625 "/></g></g></g><g clip-path="url(#443aa249f4)"><g fill="#2e3192" fill-opacity="1"><g transform="translate(313.471707, 109.956298)"><g><path d="M 48.265625 12.484375 C 47.242188 11.242188 46.5 9.632812 46.03125 7.65625 C 45.5625 5.6875 45.21875 3.597656 45 1.390625 C 44.789062 -0.816406 44.632812 -2.953125 44.53125 -5.015625 C 44.425781 -7.085938 44.304688 -8.90625 44.171875 -10.46875 C 44.191406 -10.207031 43.707031 -9.800781 42.71875 -9.25 C 41.738281 -8.707031 40.601562 -8.128906 39.3125 -7.515625 C 38.03125 -6.898438 36.851562 -6.359375 35.78125 -5.890625 C 34.71875 -5.429688 34.085938 -5.1875 33.890625 -5.15625 C 31.785156 -4.789062 30.234375 -5.078125 29.234375 -6.015625 C 28.242188 -6.953125 27.554688 -8.21875 27.171875 -9.8125 C 26.785156 -11.414062 26.4375 -12.984375 26.125 -14.515625 C 25.695312 -16.953125 24.867188 -18.445312 23.640625 -19 C 22.410156 -19.550781 20.660156 -19.117188 18.390625 -17.703125 C 16.617188 -16.640625 15.363281 -15.144531 14.625 -13.21875 C 13.894531 -11.289062 13.347656 -9.253906 12.984375 -7.109375 C 12.628906 -4.960938 12.109375 -2.984375 11.421875 -1.171875 C 10.648438 1.179688 9.679688 2.484375 8.515625 2.734375 C 7.359375 2.992188 6.320312 2.519531 5.40625 1.3125 C 4.488281 0.113281 3.875 -1.5 3.5625 -3.53125 C 3.164062 -6.925781 3.234375 -10.4375 3.765625 -14.0625 C 4.304688 -17.695312 4.976562 -21.171875 5.78125 -24.484375 C 6.164062 -26.085938 6.582031 -27.972656 7.03125 -30.140625 C 7.488281 -32.304688 8.15625 -34.367188 9.03125 -36.328125 C 9.90625 -38.296875 11.09375 -39.773438 12.59375 -40.765625 C 14.320312 -41.941406 15.703125 -42.265625 16.734375 -41.734375 C 17.773438 -41.210938 18.53125 -40.242188 19 -38.828125 C 19.46875 -37.410156 19.710938 -35.878906 19.734375 -34.234375 C 19.753906 -32.597656 19.613281 -31.265625 19.3125 -30.234375 C 21.03125 -31.734375 23.015625 -32.632812 25.265625 -32.9375 C 27.523438 -33.238281 29.632812 -32.679688 31.59375 -31.265625 C 32.675781 -30.515625 33.535156 -29.570312 34.171875 -28.4375 C 34.816406 -27.3125 35.289062 -26.113281 35.59375 -24.84375 C 35.894531 -23.90625 36.03125 -22.859375 36 -21.703125 C 35.96875 -20.554688 36.203125 -19.5625 36.703125 -18.71875 C 38.492188 -19.507812 40.265625 -20.175781 42.015625 -20.71875 C 43.773438 -21.257812 45.472656 -21.328125 47.109375 -20.921875 C 48.742188 -20.523438 50.226562 -19.351562 51.5625 -17.40625 C 52.75 -15.675781 53.625 -13.6875 54.1875 -11.4375 C 54.75 -9.195312 55.140625 -6.921875 55.359375 -4.609375 C 55.585938 -2.304688 55.691406 -0.132812 55.671875 1.90625 C 55.679688 2.550781 55.625 3.550781 55.5 4.90625 C 55.382812 6.269531 55.148438 7.691406 54.796875 9.171875 C 54.453125 10.648438 54.003906 11.914062 53.453125 12.96875 C 52.898438 14.03125 52.203125 14.597656 51.359375 14.671875 C 50.515625 14.753906 49.484375 14.023438 48.265625 12.484375 Z M 48.265625 12.484375 "/></g></g></g></g></g></g></svg>