<svg xmlns="http://www.w3.org/2000/svg" xmlns:xlink="http://www.w3.org/1999/xlink" width="600" zoomAndPan="magnify" viewBox="0 0 900 374.999991" height="200" preserveAspectRatio="xMidYMid meet" version="1.0"><defs><g/><clipPath id="e07c745c34"><path d="M 56.539062 80.003906 L 288.289062 80.003906 L 288.289062 270.503906 L 56.539062 270.503906 Z M 56.539062 80.003906 " clip-rule="nonzero"/></clipPath><clipPath id="5a3115b702"><rect x="0" width="577" y="0" height="205"/></clipPath></defs><g clip-path="url(#e07c745c34)"><path fill="#2e3192" d="M 288.125 168.730469 C 288.050781 170.132812 288.050781 171.539062 288.050781 172.792969 C 288.050781 173.828125 288.050781 174.863281 287.976562 175.898438 C 287.976562 176.492188 287.902344 177.082031 287.902344 177.671875 C 287.902344 178.410156 287.828125 179.078125 287.828125 179.816406 C 287.828125 180.554688 287.828125 181.292969 287.828125 182.109375 C 287.828125 182.625 287.828125 183.144531 287.828125 183.660156 C 287.828125 184.175781 287.828125 184.769531 287.828125 185.285156 C 287.828125 185.507812 287.828125 185.804688 287.828125 186.027344 C 287.828125 187.726562 287.828125 189.425781 287.828125 191.421875 L 287.828125 191.496094 C 287.828125 192.53125 287.828125 193.640625 287.753906 194.820312 C 287.753906 195.855469 287.679688 196.964844 287.679688 198 L 287.605469 199.476562 C 287.457031 203.839844 287.308594 208.347656 286.941406 212.710938 C 286.570312 217.367188 286.347656 222.246094 286.347656 227.269531 C 286.421875 228.75 286.496094 230.300781 286.570312 231.929688 C 286.71875 233.703125 286.792969 235.476562 286.867188 237.175781 C 286.867188 237.101562 286.867188 237.027344 286.867188 236.953125 C 286.867188 238.0625 286.867188 239.097656 286.941406 240.207031 C 286.941406 240.871094 286.941406 241.539062 286.941406 242.128906 C 286.941406 243.753906 286.941406 245.011719 286.941406 246.269531 C 286.867188 247.597656 286.867188 248.78125 286.867188 249.890625 C 286.867188 250.332031 286.867188 250.777344 286.867188 251.21875 C 286.867188 253.070312 286.867188 254.992188 286.644531 256.839844 C 286.496094 258.09375 286.347656 259.128906 285.980469 259.941406 C 285.832031 260.238281 285.683594 260.535156 285.535156 260.753906 C 285.535156 260.902344 285.609375 260.976562 285.609375 261.125 C 285.757812 261.863281 285.535156 262.605469 285.09375 263.195312 C 285.019531 263.34375 284.871094 263.417969 284.796875 263.492188 C 284.722656 263.785156 284.648438 264.082031 284.5 264.378906 C 284.132812 265.117188 283.464844 266.078125 282.285156 266.449219 L 282.136719 266.519531 C 281.691406 266.667969 281.25 266.742188 280.804688 266.816406 C 280.289062 266.890625 279.695312 266.890625 279.03125 266.890625 C 278.589844 266.890625 278.144531 266.890625 277.628906 266.890625 C 276.886719 266.890625 276.148438 266.890625 275.410156 266.890625 C 274.890625 266.890625 274.375 266.890625 273.785156 266.890625 C 271.566406 266.890625 269.273438 266.667969 267.058594 266.449219 L 266.613281 266.375 C 264.25 266.152344 261.808594 266.078125 259.371094 266.003906 L 256.632812 266.003906 C 254.640625 266.300781 252.644531 266.59375 250.722656 266.890625 L 250.5 266.890625 C 248.355469 267.1875 246.066406 267.554688 243.847656 267.703125 C 242.515625 267.777344 241.113281 267.851562 239.78125 267.925781 C 238.820312 268 237.785156 268 236.824219 268.074219 C 235.863281 268.148438 234.828125 268.222656 233.867188 268.296875 C 232.242188 268.441406 230.617188 268.589844 228.914062 268.589844 L 228.546875 268.589844 C 228.324219 268.589844 228.175781 268.589844 227.953125 268.589844 C 227.585938 268.589844 227.289062 268.589844 227.066406 268.515625 C 226.253906 268.441406 225.515625 268.222656 224.925781 268.074219 C 224.777344 268.074219 224.703125 268 224.554688 268 C 224.257812 267.925781 223.890625 267.851562 223.59375 267.703125 C 222.78125 267.410156 221.746094 266.742188 221.375 265.707031 C 221.082031 264.96875 221.007812 264.15625 221.007812 263.34375 L 221.007812 263.269531 C 220.933594 262.085938 220.859375 260.902344 220.859375 259.867188 C 220.785156 257.503906 220.710938 255.136719 220.5625 252.996094 C 220.488281 251.738281 220.414062 250.628906 220.265625 249.519531 C 220.195312 248.558594 219.972656 247.597656 219.824219 246.636719 L 219.675781 245.898438 L 219.601562 245.527344 L 219.527344 245.160156 C 219.378906 244.789062 219.234375 244.492188 219.304688 244.199219 C 219.304688 243.976562 219.304688 243.828125 219.304688 243.605469 C 219.085938 242.128906 218.789062 240.355469 218.492188 238.65625 C 218.273438 237.398438 218.050781 236.066406 217.828125 235.03125 C 217.605469 234.070312 217.457031 233.109375 217.382812 232.148438 L 217.238281 231.335938 L 217.015625 230.007812 C 216.792969 228.675781 216.570312 227.269531 216.421875 225.941406 L 216.421875 225.644531 C 216.203125 224.90625 215.90625 224.242188 215.609375 223.574219 C 215.535156 223.355469 215.390625 223.058594 215.316406 222.835938 L 214.871094 221.652344 C 214.28125 220.175781 213.6875 218.621094 212.949219 217.21875 C 212.875 216.996094 212.726562 216.847656 212.652344 216.628906 C 212.507812 216.628906 212.359375 216.628906 212.210938 216.628906 C 211.839844 216.628906 211.398438 216.628906 211.027344 216.628906 C 210.585938 216.628906 210.214844 216.628906 209.769531 216.628906 C 209.550781 216.628906 209.253906 216.628906 209.03125 216.628906 C 209.03125 216.847656 208.957031 216.996094 208.957031 217.21875 C 208.957031 217.589844 208.957031 218.03125 208.957031 218.402344 C 208.957031 218.769531 208.957031 219.066406 208.957031 219.4375 C 208.957031 220.027344 208.882812 220.691406 208.808594 221.285156 C 208.808594 221.503906 208.734375 221.726562 208.734375 221.949219 C 208.664062 222.910156 208.515625 223.648438 208.367188 224.386719 C 208.292969 224.609375 208.292969 224.832031 208.21875 225.054688 C 208.21875 225.203125 208.144531 225.421875 208.070312 225.570312 C 207.996094 225.867188 207.921875 226.238281 207.921875 226.605469 C 207.921875 226.976562 207.921875 227.34375 207.921875 227.714844 L 207.921875 227.9375 C 207.921875 228.160156 207.847656 228.304688 207.777344 228.453125 C 207.996094 228.972656 207.703125 229.636719 207.109375 230.007812 C 206.816406 230.152344 206.59375 230.152344 206.296875 230.226562 C 206.222656 230.226562 206.148438 230.226562 206.074219 230.226562 C 205.1875 230.375 204.226562 230.449219 203.042969 230.523438 C 202.453125 230.523438 202.011719 230.597656 201.566406 230.597656 C 201.492188 230.597656 201.417969 230.597656 201.269531 230.597656 C 200.753906 230.597656 200.160156 230.597656 199.421875 230.523438 C 198.90625 230.523438 198.386719 230.523438 197.945312 230.523438 L 197.5 230.523438 C 197.132812 230.523438 196.835938 230.523438 196.464844 230.523438 C 196.246094 230.523438 195.949219 230.523438 195.726562 230.523438 C 194.914062 230.523438 194.101562 230.523438 193.289062 230.449219 C 192.769531 230.449219 192.253906 230.449219 191.734375 230.375 C 191.367188 230.375 190.996094 230.375 190.625 230.375 C 190.109375 230.375 189.519531 230.375 189 230.375 C 189 230.449219 189 230.449219 189 230.523438 C 189 230.597656 189 230.671875 189 230.820312 C 189 230.894531 189 230.96875 189 231.042969 C 189 231.558594 189 232.003906 188.925781 232.445312 L 188.925781 232.371094 C 188.925781 232.667969 188.851562 232.890625 188.851562 233.183594 C 188.777344 233.777344 188.777344 234.292969 188.777344 234.738281 C 188.777344 235.105469 188.777344 235.476562 188.777344 235.773438 C 188.777344 235.917969 188.777344 236.140625 188.777344 236.289062 C 188.777344 236.660156 188.777344 237.027344 188.777344 237.398438 C 188.777344 238.0625 188.703125 238.726562 188.777344 239.46875 C 188.777344 239.910156 188.851562 240.28125 188.851562 240.578125 C 188.851562 240.722656 188.851562 240.796875 188.925781 240.945312 C 189 241.242188 189 241.539062 189 241.832031 C 189 242.054688 189 242.277344 189.074219 242.425781 C 189.148438 243.089844 189.148438 243.679688 189.074219 244.347656 C 189.074219 244.566406 189 244.789062 188.925781 244.9375 C 188.851562 245.160156 188.703125 245.453125 188.558594 245.675781 C 188.410156 245.824219 188.261719 246.046875 188.113281 246.195312 C 187.890625 246.414062 187.597656 246.5625 187.226562 246.636719 C 186.78125 246.785156 186.339844 246.785156 185.894531 246.785156 C 185.601562 246.785156 185.230469 246.785156 184.933594 246.785156 C 184.640625 246.785156 184.34375 246.785156 184.046875 246.785156 C 183.53125 246.785156 182.867188 246.859375 182.199219 246.859375 C 181.90625 246.859375 181.609375 246.933594 181.3125 246.933594 C 181.015625 246.933594 180.648438 247.007812 180.277344 247.007812 C 179.6875 247.082031 179.09375 247.082031 178.503906 247.082031 C 177.765625 247.082031 177.101562 247.15625 176.359375 247.230469 C 175.621094 247.304688 174.882812 247.375 174.144531 247.449219 C 173.625 247.523438 173.109375 247.523438 172.515625 247.597656 C 171.261719 247.746094 169.929688 247.746094 168.746094 247.820312 C 165.9375 247.96875 163.351562 248.042969 160.984375 248.042969 C 160.910156 248.042969 160.839844 248.042969 160.691406 248.042969 C 160.394531 248.042969 160.171875 248.042969 159.878906 248.042969 C 159.582031 248.042969 159.359375 248.042969 159.0625 248.042969 L 158.695312 248.042969 C 158.25 248.042969 157.734375 248.042969 157.289062 248.042969 C 157.066406 248.042969 156.773438 248.042969 156.550781 248.042969 L 156.328125 248.042969 C 156.035156 248.042969 155.664062 248.042969 155.367188 247.96875 C 154.925781 247.894531 154.039062 247.671875 153.816406 247.082031 C 153.742188 246.859375 153.742188 246.636719 153.742188 246.414062 C 153.742188 246.269531 153.742188 246.195312 153.742188 246.046875 C 153.742188 245.972656 153.742188 245.824219 153.742188 245.75 C 153.742188 245.675781 153.742188 245.527344 153.742188 245.453125 C 153.742188 245.382812 153.742188 245.234375 153.742188 245.160156 L 153.742188 244.863281 C 153.742188 244.566406 153.742188 244.199219 153.742188 243.902344 C 153.742188 243.679688 153.742188 243.53125 153.742188 243.3125 C 153.742188 243.089844 153.742188 242.867188 153.742188 242.644531 L 153.742188 242.5 C 153.742188 242.128906 153.816406 241.683594 153.816406 241.316406 C 153.890625 240.355469 153.816406 239.320312 153.742188 238.507812 L 153.742188 238.433594 C 153.667969 237.988281 153.667969 237.546875 153.59375 237.101562 C 153.59375 237.027344 153.519531 236.878906 153.519531 236.804688 C 153.445312 236.660156 153.445312 236.511719 153.445312 236.363281 C 153.371094 236.140625 153.371094 235.847656 153.296875 235.625 C 153.222656 235.328125 153.371094 235.03125 153.667969 234.886719 C 153.667969 234.738281 153.742188 234.589844 153.816406 234.515625 C 153.964844 234.292969 154.257812 234.070312 154.628906 233.996094 C 156.699219 233.628906 158.769531 233.480469 160.394531 233.480469 C 160.691406 233.480469 160.984375 233.480469 161.28125 233.480469 C 161.578125 233.480469 161.945312 233.480469 162.242188 233.40625 L 162.832031 233.40625 C 163.351562 233.40625 163.792969 233.40625 164.3125 233.332031 C 164.828125 233.332031 165.421875 233.257812 165.9375 233.257812 C 166.675781 233.183594 167.34375 233.183594 168.082031 233.183594 C 168.527344 233.183594 168.96875 233.183594 169.414062 233.183594 C 169.632812 233.183594 169.855469 233.183594 170.078125 233.183594 C 170.667969 233.183594 171.1875 233.183594 171.703125 233.183594 C 171.851562 233.183594 171.925781 233.183594 172.074219 233.183594 C 172.296875 233.183594 172.589844 233.183594 172.8125 233.183594 C 173.183594 233.183594 173.550781 233.183594 173.996094 233.183594 L 174.070312 233.183594 C 174.144531 233.183594 174.289062 233.183594 174.363281 233.183594 C 174.511719 233.183594 174.585938 233.183594 174.734375 233.183594 C 174.957031 233.183594 175.105469 233.183594 175.25 233.183594 C 175.324219 232.890625 175.324219 232.667969 175.398438 232.371094 C 175.398438 232.222656 175.398438 232.148438 175.398438 232.003906 C 175.398438 231.855469 175.472656 231.707031 175.472656 231.558594 C 175.546875 231.261719 175.546875 230.96875 175.621094 230.671875 C 175.621094 230.300781 175.695312 230.007812 175.769531 229.636719 C 175.84375 229.121094 175.917969 228.601562 175.917969 228.011719 C 175.917969 227.566406 175.992188 227.050781 175.992188 226.605469 L 175.992188 226.53125 C 175.992188 226.015625 176.066406 225.496094 176.066406 225.054688 L 176.066406 224.90625 C 176.066406 224.386719 176.140625 223.871094 176.140625 223.425781 L 176.140625 222.984375 C 176.140625 222.835938 176.140625 222.6875 176.140625 222.539062 C 176.140625 222.394531 176.140625 222.246094 176.140625 222.097656 C 176.140625 221.726562 176.140625 221.433594 176.210938 220.988281 L 176.210938 220.398438 C 176.210938 220.324219 176.210938 220.324219 176.210938 220.25 C 176.210938 220.175781 176.210938 220.175781 176.210938 220.101562 L 176.210938 220.027344 C 176.210938 219.878906 176.210938 219.804688 176.285156 219.65625 C 176.359375 219.4375 176.433594 219.363281 176.582031 219.140625 L 176.65625 219.066406 C 176.878906 218.84375 177.320312 218.621094 177.617188 218.550781 C 177.691406 218.550781 177.839844 218.476562 177.914062 218.476562 C 178.28125 218.402344 178.652344 218.402344 178.949219 218.402344 C 179.316406 218.402344 179.6875 218.402344 179.984375 218.402344 C 180.871094 218.402344 181.757812 218.328125 182.644531 218.328125 C 183.234375 218.328125 183.828125 218.253906 184.492188 218.253906 C 185.007812 218.253906 185.601562 218.253906 186.117188 218.179688 C 186.855469 218.179688 187.597656 218.179688 188.410156 218.105469 C 189.074219 218.105469 189.664062 218.03125 190.332031 218.03125 C 190.699219 218.03125 191.070312 218.03125 191.367188 217.957031 C 191.660156 217.957031 191.882812 217.957031 192.179688 217.882812 C 192.84375 217.882812 193.507812 217.808594 194.175781 217.808594 L 194.46875 217.808594 C 194.914062 217.808594 195.355469 217.734375 195.875 217.734375 C 196.023438 217.734375 196.097656 217.734375 196.246094 217.734375 L 196.464844 217.734375 C 196.6875 217.734375 196.984375 217.734375 197.207031 217.734375 L 197.425781 217.734375 C 197.574219 217.734375 197.796875 217.734375 197.945312 217.734375 L 197.945312 217.589844 C 197.945312 217.367188 197.871094 217.144531 197.871094 216.847656 C 197.871094 216.699219 197.871094 216.554688 197.871094 216.40625 C 197.871094 216.109375 197.871094 215.8125 197.871094 215.519531 C 197.871094 215.074219 197.871094 214.707031 197.945312 214.261719 L 197.945312 213.816406 C 198.019531 213.078125 198.019531 212.265625 198.09375 211.527344 C 198.09375 210.9375 198.167969 210.34375 198.167969 209.828125 C 198.167969 209.53125 198.167969 209.234375 198.167969 208.941406 C 198.167969 208.71875 198.167969 208.496094 198.238281 208.273438 C 198.238281 208.125 198.238281 207.980469 198.238281 207.757812 C 198.238281 207.609375 198.238281 207.460938 198.238281 207.3125 C 198.238281 207.019531 198.238281 206.722656 198.3125 206.351562 C 198.3125 206.058594 198.386719 205.6875 198.460938 205.390625 C 198.535156 205.097656 198.683594 204.800781 198.832031 204.429688 C 199.054688 203.914062 199.792969 203.617188 200.382812 203.617188 C 200.457031 203.617188 200.605469 203.617188 200.679688 203.617188 C 200.015625 203.175781 199.347656 202.65625 198.683594 202.214844 C 197.058594 201.179688 195.429688 200.367188 193.804688 199.625 C 192.253906 198.960938 190.625 198.296875 188.484375 197.484375 C 187.449219 197.1875 186.636719 196.964844 185.820312 196.742188 C 184.859375 196.523438 183.972656 196.375 182.867188 196.300781 C 180.425781 196.003906 178.503906 195.78125 176.65625 195.632812 C 175.25 195.5625 173.550781 195.488281 171.925781 195.488281 C 170.375 195.488281 169.042969 195.5625 167.710938 195.632812 C 164.683594 195.855469 161.578125 196.449219 158.769531 196.964844 C 157.585938 197.261719 155.960938 197.628906 154.40625 198.148438 C 153.445312 198.445312 152.484375 198.8125 151.523438 199.183594 C 151.082031 199.332031 150.636719 199.550781 150.195312 199.699219 C 149.382812 199.996094 148.566406 200.292969 147.753906 200.585938 C 147.015625 200.882812 146.277344 201.105469 145.464844 201.398438 C 144.207031 201.84375 142.949219 202.433594 141.914062 202.953125 C 141.398438 203.25 140.804688 203.542969 140.289062 203.839844 C 140.140625 203.914062 140.066406 204.0625 139.917969 204.136719 C 139.992188 204.0625 140.066406 203.988281 140.066406 203.988281 C 138.738281 205.316406 137.332031 206.574219 136 207.90625 C 135.261719 208.71875 134.523438 209.457031 133.785156 210.34375 C 133.117188 211.15625 132.601562 211.96875 132.011719 212.785156 C 130.902344 214.410156 129.867188 216.035156 128.832031 217.734375 C 127.355469 220.398438 126.171875 223.132812 124.988281 225.941406 C 123.804688 228.675781 122.917969 231.484375 122.03125 234.292969 C 120.996094 238.136719 120.40625 242.054688 119.445312 245.898438 C 119.148438 247.082031 118.925781 248.265625 118.707031 249.445312 C 118.410156 250.703125 118.1875 252.035156 118.039062 253.363281 C 117.964844 254.027344 117.890625 254.695312 117.816406 255.433594 C 117.746094 256.023438 117.746094 256.617188 117.671875 257.132812 C 117.523438 258.242188 117.375 259.425781 117.226562 260.535156 C 117.003906 261.9375 116.785156 263.269531 116.339844 264.597656 C 115.894531 265.855469 114.933594 266.890625 113.679688 267.410156 C 113.085938 267.703125 112.421875 267.851562 111.757812 268 C 109.464844 268.515625 107.175781 268.515625 104.808594 268.8125 C 103.550781 268.960938 102.296875 269.109375 101.039062 269.183594 C 99.855469 269.257812 98.671875 269.332031 97.492188 269.476562 C 95.125 269.699219 92.835938 269.996094 90.46875 270.070312 C 89.285156 270.144531 88.105469 270.21875 86.847656 270.21875 C 85.8125 270.21875 84.777344 270.292969 83.742188 270.292969 C 82.484375 270.363281 81.15625 270.4375 79.898438 270.511719 C 78.640625 270.585938 77.460938 270.585938 76.203125 270.660156 C 74.945312 270.734375 73.691406 270.734375 72.433594 270.734375 C 71.027344 270.734375 69.625 270.734375 68.21875 270.585938 C 67.332031 270.511719 66.519531 270.4375 65.632812 270.292969 C 65.410156 270.363281 65.1875 270.4375 64.96875 270.4375 C 64.671875 270.511719 64.375 270.585938 64.082031 270.585938 C 63.636719 270.585938 63.121094 270.660156 62.675781 270.511719 C 62.160156 270.363281 61.714844 270.21875 61.273438 269.996094 C 60.679688 269.921875 60.015625 269.699219 59.570312 269.332031 C 59.277344 269.109375 58.980469 268.8125 58.683594 268.589844 C 57.871094 267.925781 57.429688 267.039062 57.28125 266.003906 C 56.613281 265.339844 56.613281 264.527344 56.613281 263.710938 C 56.613281 262.898438 56.6875 262.085938 56.835938 261.273438 C 56.835938 260.976562 56.910156 260.683594 56.910156 260.386719 C 56.835938 260.164062 56.761719 259.867188 56.761719 259.574219 C 56.761719 259.425781 56.761719 259.351562 56.761719 259.203125 C 56.761719 258.980469 56.761719 258.761719 56.761719 258.539062 C 56.761719 257.800781 56.835938 257.058594 56.835938 256.246094 L 56.835938 254.988281 C 56.835938 253.957031 56.910156 252.847656 56.910156 251.738281 C 56.910156 250.925781 56.835938 250.039062 56.761719 249.226562 C 56.761719 248.855469 56.6875 248.410156 56.6875 248.042969 C 56.539062 245.601562 56.613281 243.164062 56.6875 240.796875 C 56.6875 240.058594 56.761719 239.394531 56.761719 238.65625 C 56.761719 238.0625 56.761719 237.472656 56.835938 236.953125 C 56.835938 235.773438 56.910156 234.664062 56.984375 233.480469 L 56.984375 233.183594 C 57.058594 230.671875 57.132812 228.527344 57.058594 226.53125 C 56.984375 225.421875 57.058594 224.316406 57.058594 223.28125 C 57.058594 222.761719 57.058594 222.246094 57.132812 221.652344 C 57.132812 221.0625 57.207031 220.472656 57.207031 219.953125 L 57.207031 218.992188 C 57.207031 216.996094 57.28125 215 57.207031 213.003906 C 57.207031 212.488281 57.207031 211.898438 57.207031 211.378906 C 57.207031 210.640625 57.207031 209.902344 57.207031 209.160156 C 57.207031 207.980469 57.132812 206.722656 57.132812 205.171875 C 57.132812 203.988281 57.207031 202.730469 57.28125 201.546875 C 57.355469 200.292969 57.429688 198.960938 57.429688 197.703125 C 57.429688 195.339844 57.574219 192.972656 57.722656 190.683594 L 57.796875 189.574219 C 57.796875 188.761719 57.796875 187.875 57.796875 187.058594 C 57.796875 186.320312 57.796875 185.65625 57.796875 184.917969 C 57.796875 184.175781 57.871094 183.4375 57.871094 182.699219 C 57.945312 181.738281 57.945312 180.777344 57.945312 179.816406 C 57.945312 179.445312 57.945312 179.078125 57.945312 178.707031 C 57.945312 177.378906 57.945312 175.972656 58.09375 174.570312 C 58.167969 173.976562 58.242188 173.3125 58.242188 172.71875 C 58.316406 171.980469 58.390625 171.242188 58.460938 170.503906 C 58.535156 169.097656 58.535156 167.621094 58.535156 165.921875 L 58.535156 165.105469 C 58.535156 164.515625 58.535156 163.925781 58.535156 163.332031 C 58.535156 162.296875 58.609375 161.335938 58.683594 160.300781 L 58.683594 160.15625 C 58.757812 159.414062 59.351562 158.675781 59.867188 158.308594 C 60.3125 158.011719 60.902344 157.863281 61.417969 157.863281 C 61.566406 157.863281 61.789062 157.863281 61.9375 157.9375 C 61.9375 157.9375 62.011719 157.9375 62.011719 157.9375 C 62.234375 157.863281 62.453125 157.789062 62.601562 157.789062 L 62.675781 157.789062 C 63.5625 157.863281 64.523438 157.863281 65.410156 157.863281 C 66.371094 157.863281 67.40625 157.9375 68.367188 158.011719 C 69.253906 158.085938 70.140625 158.160156 70.953125 158.234375 C 71.621094 158.308594 72.210938 158.308594 72.875 158.378906 C 73.46875 158.378906 74.058594 158.378906 74.578125 158.378906 C 75.316406 158.378906 76.054688 158.378906 76.792969 158.378906 C 77.605469 158.378906 78.347656 158.378906 79.160156 158.378906 C 79.601562 158.378906 79.972656 158.378906 80.417969 158.378906 C 80.859375 158.378906 81.230469 158.378906 81.671875 158.378906 C 81.96875 158.378906 82.265625 158.378906 82.558594 158.378906 C 82.929688 158.378906 83.300781 158.378906 83.667969 158.378906 C 84.332031 158.378906 85 158.378906 85.664062 158.378906 C 88.546875 158.378906 91.429688 158.308594 94.386719 158.308594 C 96.011719 158.308594 97.640625 158.234375 99.265625 158.160156 C 100.226562 158.160156 101.1875 158.085938 102.148438 158.085938 C 104.660156 158.011719 107.25 158.011719 109.761719 158.011719 C 112.644531 158.011719 115.675781 158.011719 118.632812 157.863281 C 121.589844 157.789062 124.542969 157.714844 126.761719 157.714844 L 127.5 157.714844 C 128.316406 157.714844 129.128906 157.714844 129.941406 157.714844 C 130.164062 157.714844 130.382812 157.714844 130.605469 157.714844 L 131.492188 157.714844 C 132.085938 157.714844 132.75 157.714844 133.339844 157.714844 C 133.710938 157.714844 134.152344 157.714844 134.523438 157.714844 C 135.707031 157.714844 136.890625 157.640625 138.144531 157.566406 C 139.625 157.492188 141.175781 157.417969 142.726562 157.417969 C 143.171875 157.417969 143.617188 157.417969 144.058594 157.417969 C 146.203125 157.417969 148.492188 157.492188 150.785156 157.566406 L 151.894531 157.640625 C 152.929688 157.714844 153.964844 157.714844 154.925781 157.789062 C 156.105469 157.789062 157.289062 157.789062 158.472656 157.789062 L 158.917969 157.789062 C 160.246094 157.789062 161.652344 157.863281 162.90625 157.863281 C 164.3125 157.9375 165.714844 157.9375 167.121094 157.9375 C 169.265625 157.9375 171.480469 158.011719 173.550781 158.085938 L 175.398438 158.160156 C 177.691406 158.234375 179.984375 158.234375 182.125 158.234375 L 185.675781 158.234375 C 190.257812 158.234375 194.988281 158.234375 199.644531 158.160156 L 202.230469 158.160156 C 204.078125 158.160156 205.925781 158.160156 207.847656 158.085938 C 208.070312 158.085938 208.292969 158.085938 208.441406 158.085938 C 208.957031 158.085938 209.476562 158.085938 209.992188 158.085938 C 210.4375 158.085938 210.953125 158.085938 211.398438 158.085938 L 211.617188 158.085938 C 212.136719 158.085938 212.578125 158.085938 213.097656 158.085938 C 214.058594 158.085938 215.019531 158.085938 215.980469 158.085938 L 216.644531 158.085938 C 217.382812 158.085938 218.125 158.085938 218.9375 158.085938 C 219.234375 158.085938 219.527344 158.085938 219.824219 158.085938 C 220.414062 158.085938 221.082031 158.085938 221.671875 158.011719 C 222.484375 158.011719 223.296875 158.011719 224.039062 157.9375 C 225.441406 157.9375 226.847656 157.863281 228.175781 157.789062 C 229.433594 157.714844 230.691406 157.714844 231.945312 157.640625 L 233.277344 157.640625 C 235.347656 157.566406 237.5625 157.566406 239.632812 157.566406 C 240.226562 157.566406 240.890625 157.566406 241.480469 157.566406 C 242.222656 157.566406 242.960938 157.566406 243.699219 157.566406 L 243.921875 157.566406 C 244.660156 157.566406 245.398438 157.566406 246.136719 157.566406 C 246.65625 157.566406 247.171875 157.566406 247.691406 157.566406 C 250.203125 157.566406 252.9375 157.640625 255.671875 157.789062 C 258.628906 157.9375 260.996094 158.011719 263.140625 158.011719 L 268.683594 158.011719 C 269.496094 158.011719 270.308594 158.011719 271.121094 158.011719 C 271.417969 158.011719 271.640625 158.011719 271.933594 158.011719 C 274.152344 158.011719 276.445312 158.160156 278.441406 158.234375 C 278.292969 158.234375 278.144531 158.234375 277.996094 158.234375 C 278.292969 158.234375 278.589844 158.234375 278.882812 158.308594 C 279.328125 158.308594 279.769531 158.378906 280.214844 158.378906 C 280.730469 158.378906 281.175781 158.453125 281.691406 158.453125 C 281.839844 158.453125 282.0625 158.453125 282.285156 158.453125 C 282.503906 158.453125 282.800781 158.453125 283.023438 158.527344 C 283.097656 158.527344 283.097656 158.527344 283.171875 158.527344 C 283.246094 158.527344 283.320312 158.527344 283.394531 158.527344 C 283.6875 158.527344 283.910156 158.601562 284.207031 158.675781 C 284.28125 158.675781 284.355469 158.675781 284.355469 158.675781 C 284.425781 158.675781 284.5 158.675781 284.574219 158.675781 C 285.980469 158.675781 287.234375 159.785156 287.382812 161.261719 L 287.382812 161.855469 L 287.457031 162.371094 C 287.53125 163.257812 287.679688 164.21875 287.679688 165.105469 C 288.195312 166.511719 288.195312 167.621094 288.125 168.730469 Z M 59.644531 153.648438 C 60.089844 154.09375 60.605469 154.316406 61.050781 154.390625 C 63.488281 154.683594 66.222656 154.832031 69.550781 154.832031 C 71.101562 154.832031 72.730469 154.90625 74.429688 154.90625 C 75.390625 154.90625 76.351562 154.90625 77.386719 154.90625 C 79.457031 154.90625 81.523438 154.757812 83.519531 154.609375 C 84.332031 154.535156 85.074219 154.535156 85.886719 154.464844 C 87.144531 154.390625 88.398438 154.316406 89.582031 154.242188 C 90.914062 154.167969 92.242188 154.019531 93.5 153.945312 C 94.609375 153.871094 95.71875 153.871094 96.824219 153.796875 C 98.527344 153.722656 100.152344 153.648438 101.851562 153.574219 C 104.367188 153.429688 107.027344 153.355469 110.277344 153.28125 C 111.3125 153.28125 112.421875 153.28125 113.457031 153.207031 C 114.933594 153.207031 116.488281 153.207031 117.964844 153.132812 C 119.222656 153.132812 120.480469 153.058594 121.734375 152.984375 C 123.289062 152.910156 124.839844 152.910156 126.394531 152.835938 L 126.613281 152.835938 C 127.796875 152.835938 129.054688 152.761719 130.238281 152.761719 L 130.457031 152.761719 C 130.828125 152.761719 131.199219 152.761719 131.566406 152.761719 C 132.011719 152.761719 132.527344 152.761719 132.972656 152.761719 C 133.488281 152.761719 134.007812 152.761719 134.449219 152.761719 L 136 152.761719 C 138.292969 152.6875 140.585938 152.6875 142.875 152.542969 C 143.835938 152.46875 144.796875 152.46875 145.683594 152.394531 C 147.386719 152.320312 149.160156 152.171875 150.859375 152.171875 C 151.820312 152.097656 152.855469 152.097656 153.816406 152.023438 C 155.515625 151.949219 157.363281 151.875 159.0625 151.800781 C 161.058594 151.800781 163.054688 151.726562 165.273438 151.726562 C 168.15625 151.726562 171.261719 151.726562 175.179688 151.800781 C 176.066406 151.800781 176.953125 151.800781 177.839844 151.875 C 179.6875 151.875 181.535156 151.949219 183.382812 151.949219 L 183.898438 151.949219 C 184.789062 151.949219 185.675781 151.949219 186.636719 151.949219 L 187.300781 151.949219 C 188.335938 151.949219 189.296875 151.949219 190.332031 151.949219 C 190.773438 151.949219 191.144531 151.949219 191.585938 151.949219 C 192.03125 151.949219 192.402344 151.949219 192.84375 151.949219 C 194.394531 151.949219 195.875 151.949219 197.425781 151.875 C 198.238281 151.875 198.980469 151.875 199.792969 151.875 C 200.976562 151.875 202.230469 151.800781 203.414062 151.800781 C 204.820312 151.726562 206.296875 151.726562 207.777344 151.726562 L 207.847656 151.726562 C 208.515625 151.726562 209.105469 151.726562 209.769531 151.726562 C 210.363281 151.726562 210.953125 151.726562 211.617188 151.726562 L 216.054688 151.726562 C 218.199219 151.726562 220.339844 151.800781 222.410156 151.875 L 223.964844 151.949219 C 225.441406 152.023438 226.921875 152.023438 228.324219 152.023438 C 229.210938 152.023438 230.023438 152.023438 230.910156 152.097656 C 232.90625 152.171875 235.050781 152.246094 237.34375 152.320312 L 238.304688 152.394531 C 240.003906 152.46875 241.703125 152.613281 243.402344 152.6875 C 244.214844 152.6875 245.03125 152.761719 245.84375 152.761719 C 246.953125 152.761719 248.058594 152.835938 249.242188 152.910156 C 251.535156 153.058594 253.824219 153.132812 256.042969 153.207031 C 257.667969 153.28125 259.222656 153.355469 260.847656 153.429688 C 262.695312 153.574219 264.617188 153.648438 266.6875 153.796875 C 268.683594 153.945312 270.753906 154.09375 273.339844 154.390625 C 275.410156 154.609375 277.699219 154.832031 279.917969 154.90625 L 279.992188 154.90625 C 280.65625 154.90625 281.398438 154.390625 281.839844 153.945312 C 282.136719 153.574219 282.359375 153.207031 282.503906 152.761719 C 282.726562 152.542969 282.875 152.320312 283.023438 152.097656 C 283.394531 151.359375 283.394531 150.691406 283.246094 149.878906 C 283.171875 149.4375 283.023438 148.917969 282.875 148.476562 C 282.800781 148.179688 282.726562 147.882812 282.578125 147.515625 L 282.726562 148.105469 C 282.285156 146.035156 281.472656 144.1875 280.804688 142.636719 C 280.140625 141.304688 279.621094 140.121094 278.957031 139.089844 C 278.441406 138.203125 277.921875 137.242188 277.257812 135.984375 C 276.445312 134.359375 275.335938 132.878906 274.300781 131.402344 C 274.078125 131.03125 273.785156 130.734375 273.5625 130.367188 C 273.117188 129.699219 272.601562 128.960938 272.15625 128.296875 C 271.269531 126.964844 270.382812 125.636719 269.421875 124.378906 C 268.757812 123.492188 268.019531 122.605469 267.351562 121.792969 C 266.613281 120.90625 265.800781 119.945312 265.0625 118.910156 C 264.765625 118.464844 264.46875 118.023438 264.175781 117.578125 C 263.804688 117.0625 263.433594 116.542969 263.066406 116.027344 C 262.253906 114.917969 261.292969 113.808594 260.40625 112.847656 C 259.664062 111.960938 258.851562 111.148438 258.039062 110.261719 L 257.890625 110.113281 C 257.667969 109.890625 257.449219 109.667969 257.226562 109.449219 C 256.632812 108.855469 256.042969 108.191406 255.453125 107.597656 C 253.898438 106.046875 252.125 104.714844 250.351562 103.460938 L 249.835938 103.089844 C 247.542969 101.390625 245.472656 99.914062 243.550781 98.507812 L 242.8125 97.992188 C 241.925781 97.324219 240.964844 96.660156 240.003906 96.070312 C 238.96875 95.402344 237.859375 94.8125 236.75 94.21875 L 236.601562 94.148438 C 234.753906 93.113281 232.757812 92.152344 230.910156 91.265625 L 229.582031 90.597656 C 227.363281 89.488281 224.851562 88.308594 222.261719 87.273438 C 219.824219 86.3125 217.382812 85.351562 214.945312 84.539062 C 212.652344 83.796875 210.289062 83.132812 207.777344 82.542969 C 205.707031 82.023438 203.414062 81.65625 200.753906 81.359375 C 198.167969 81.0625 195.652344 80.839844 192.84375 80.695312 L 192.105469 80.621094 C 189.664062 80.472656 187.078125 80.25 184.566406 80.175781 L 183.457031 80.175781 C 182.496094 80.175781 181.609375 80.101562 180.648438 80.101562 L 180.203125 80.101562 C 179.023438 80.101562 177.691406 80.175781 176.359375 80.25 C 173.625 80.398438 170.890625 80.621094 168.15625 80.769531 C 165.496094 80.914062 162.90625 81.136719 160.320312 81.507812 C 157.4375 81.875 154.628906 82.320312 152.191406 82.6875 L 150.859375 82.910156 C 148.566406 83.28125 146.128906 83.648438 143.761719 84.167969 C 141.398438 84.683594 138.957031 85.351562 136.667969 86.015625 L 135.855469 86.238281 C 133.046875 86.976562 130.382812 87.789062 127.871094 88.675781 C 125.0625 89.636719 122.550781 90.597656 120.257812 91.558594 C 117.671875 92.667969 115.082031 93.925781 112.570312 95.179688 L 112.421875 95.253906 C 111.238281 95.847656 109.984375 96.511719 108.726562 97.25 C 107.691406 97.84375 106.582031 98.582031 105.328125 99.46875 C 104.144531 100.28125 103.035156 101.09375 101.925781 101.980469 C 100.964844 102.648438 100.003906 103.386719 99.042969 104.050781 C 97.269531 105.382812 95.347656 106.636719 93.574219 107.894531 L 92.242188 108.855469 C 90.097656 110.335938 88.03125 112.035156 86.183594 113.734375 C 84.039062 115.582031 81.894531 117.578125 79.824219 119.648438 C 78.125 121.347656 76.203125 123.34375 74.429688 125.488281 C 73.910156 126.152344 73.394531 126.742188 72.875 127.335938 C 71.84375 128.519531 70.882812 129.773438 69.847656 131.03125 C 68.960938 132.140625 68.21875 133.175781 67.554688 134.0625 C 66.742188 135.171875 66.003906 136.207031 65.335938 137.3125 C 63.933594 139.605469 62.675781 141.675781 61.566406 143.671875 C 60.457031 145.59375 59.496094 147.738281 58.609375 150.027344 C 58.390625 150.691406 58.167969 151.359375 58.460938 152.171875 C 58.683594 152.761719 59.128906 153.28125 59.644531 153.648438 Z M 59.644531 153.648438 " fill-opacity="1" fill-rule="nonzero"/></g><g transform="matrix(1, 0, 0, 1, 289, 72)"><g clip-path="url(#5a3115b702)"><g fill="#2e3192" fill-opacity="1"><g transform="translate(31.243868, 144.250112)"><g><path d="M 11.578125 -3.375 C 9.140625 -3.363281 6.972656 -4.035156 5.078125 -5.390625 C 3.179688 -6.742188 1.53125 -8.539062 0.125 -10.78125 C -1.28125 -13.019531 -2.40625 -15.460938 -3.25 -18.109375 C -4.09375 -20.765625 -4.640625 -23.367188 -4.890625 -25.921875 C -5.148438 -28.472656 -5.117188 -30.707031 -4.796875 -32.625 C -4.171875 -36.0625 -2.96875 -39.101562 -1.1875 -41.75 C 0.59375 -44.394531 3.0625 -46.488281 6.21875 -48.03125 C 8.132812 -48.945312 10.226562 -49.476562 12.5 -49.625 C 14.769531 -49.78125 16.859375 -49.414062 18.765625 -48.53125 C 20.679688 -47.644531 22.0625 -46.019531 22.90625 -43.65625 C 24.09375 -42.082031 24.507812 -40.632812 24.15625 -39.3125 C 23.800781 -37.988281 23.050781 -37 21.90625 -36.34375 C 20.757812 -35.695312 19.488281 -35.554688 18.09375 -35.921875 C 16.707031 -36.285156 15.535156 -37.316406 14.578125 -39.015625 C 13.503906 -38.316406 12.429688 -37.019531 11.359375 -35.125 C 10.296875 -33.226562 9.363281 -31.085938 8.5625 -28.703125 C 7.757812 -26.328125 7.296875 -24.054688 7.171875 -21.890625 C 7.054688 -19.722656 7.457031 -17.960938 8.375 -16.609375 C 9.394531 -15.128906 10.3125 -14.5 11.125 -14.71875 C 11.945312 -14.9375 12.695312 -15.609375 13.375 -16.734375 C 14.0625 -17.859375 14.679688 -19.015625 15.234375 -20.203125 C 15.785156 -21.398438 16.285156 -22.234375 16.734375 -22.703125 C 17.546875 -24.878906 18.382812 -26.171875 19.25 -26.578125 C 20.125 -26.984375 20.945312 -26.796875 21.71875 -26.015625 C 22.488281 -25.242188 23.125 -24.171875 23.625 -22.796875 C 24.125 -21.421875 24.46875 -19.988281 24.65625 -18.5 C 24.84375 -17.019531 24.785156 -15.789062 24.484375 -14.8125 C 24.054688 -13.007812 23.179688 -11.234375 21.859375 -9.484375 C 20.546875 -7.734375 18.992188 -6.285156 17.203125 -5.140625 C 15.410156 -4.003906 13.535156 -3.414062 11.578125 -3.375 Z M 11.578125 -3.375 "/></g></g></g><g fill="#2e3192" fill-opacity="1"><g transform="translate(60.343516, 136.381118)"><g><path d="M 31.53125 -7.25 C 30.332031 -7.25 29.320312 -7.695312 28.5 -8.59375 C 27.675781 -9.488281 26.992188 -10.582031 26.453125 -11.875 C 25.910156 -13.175781 25.460938 -14.460938 25.109375 -15.734375 C 24.753906 -17.003906 24.488281 -18.03125 24.3125 -18.8125 C 23.363281 -16.582031 21.972656 -14.550781 20.140625 -12.71875 C 18.304688 -10.882812 16.257812 -9.519531 14 -8.625 C 11.75 -7.726562 9.492188 -7.507812 7.234375 -7.96875 C 4.972656 -8.4375 2.894531 -9.8125 1 -12.09375 C -0.851562 -14.425781 -2.171875 -17.097656 -2.953125 -20.109375 C -3.734375 -23.117188 -4.03125 -26.222656 -3.84375 -29.421875 C -3.664062 -32.617188 -3.125 -35.535156 -2.21875 -38.171875 C -1.300781 -40.585938 -0.046875 -42.84375 1.546875 -44.9375 C 3.148438 -47.039062 5.023438 -48.703125 7.171875 -49.921875 C 9.328125 -51.140625 11.566406 -51.644531 13.890625 -51.4375 C 16.222656 -51.238281 18.566406 -50.085938 20.921875 -47.984375 C 22.304688 -46.773438 23.46875 -45.6875 24.40625 -44.71875 C 25.351562 -43.757812 26.148438 -42.691406 26.796875 -41.515625 C 27.453125 -40.347656 28.03125 -38.816406 28.53125 -36.921875 L 33.328125 -18.46875 C 33.492188 -17.75 33.753906 -16.769531 34.109375 -15.53125 C 34.460938 -14.289062 34.691406 -13.039062 34.796875 -11.78125 C 34.910156 -10.53125 34.734375 -9.46875 34.265625 -8.59375 C 33.804688 -7.726562 32.894531 -7.28125 31.53125 -7.25 Z M 13.890625 -26.75 C 14.679688 -26.925781 15.40625 -27.554688 16.0625 -28.640625 C 16.71875 -29.722656 17.265625 -30.882812 17.703125 -32.125 C 18.148438 -33.375 18.40625 -34.3125 18.46875 -34.9375 C 18.8125 -36.550781 18.609375 -37.859375 17.859375 -38.859375 C 17.109375 -39.867188 16.015625 -39.867188 14.578125 -38.859375 C 13.609375 -38.222656 12.789062 -37.066406 12.125 -35.390625 C 11.46875 -33.710938 11.0625 -32.304688 10.90625 -31.171875 C 10.820312 -30.035156 10.929688 -28.945312 11.234375 -27.90625 C 11.546875 -26.863281 12.429688 -26.476562 13.890625 -26.75 Z M 13.890625 -26.75 "/></g></g></g><g fill="#2e3192" fill-opacity="1"><g transform="translate(92.491417, 128.949058)"><g><path d="M 15.4375 2.09375 C 13.695312 3.101562 11.710938 3.898438 9.484375 4.484375 C 7.253906 5.066406 5.207031 4.773438 3.34375 3.609375 C 1.476562 2.441406 0.351562 1.070312 -0.03125 -0.5 C -0.425781 -2.082031 -0.144531 -3.785156 0.8125 -5.609375 C 1.570312 -7.054688 2.613281 -8.316406 3.9375 -9.390625 C 5.257812 -10.460938 6.597656 -11.515625 7.953125 -12.546875 C 9.304688 -13.585938 10.523438 -14.707031 11.609375 -15.90625 C 12.691406 -17.101562 13.378906 -18.550781 13.671875 -20.25 C 14.003906 -21.832031 13.863281 -23.082031 13.25 -24 C 12.632812 -24.914062 11.820312 -25.691406 10.8125 -26.328125 C 9.800781 -26.960938 8.773438 -27.628906 7.734375 -28.328125 C 5.992188 -29.660156 4.617188 -31.265625 3.609375 -33.140625 C 2.609375 -35.015625 2.175781 -37.097656 2.3125 -39.390625 C 2.457031 -43.054688 3.710938 -46.101562 6.078125 -48.53125 C 8.453125 -50.96875 11.144531 -52.984375 14.15625 -54.578125 C 15.21875 -55.109375 16.484375 -55.664062 17.953125 -56.25 C 19.421875 -56.832031 20.910156 -57.226562 22.421875 -57.4375 C 23.929688 -57.644531 25.359375 -57.546875 26.703125 -57.140625 C 28.046875 -56.742188 29.125 -55.828125 29.9375 -54.390625 C 31.050781 -52.535156 31.320312 -50.898438 30.75 -49.484375 C 30.175781 -48.078125 29.140625 -46.785156 27.640625 -45.609375 C 26.148438 -44.441406 24.5625 -43.289062 22.875 -42.15625 C 21.195312 -41.03125 19.785156 -39.828125 18.640625 -38.546875 C 17.503906 -37.273438 17.015625 -35.828125 17.171875 -34.203125 C 17.359375 -32.867188 17.976562 -31.765625 19.03125 -30.890625 C 20.082031 -30.015625 21.253906 -29.25 22.546875 -28.59375 C 23.835938 -27.9375 24.875 -27.164062 25.65625 -26.28125 C 26.882812 -24.851562 27.691406 -23.265625 28.078125 -21.515625 C 28.460938 -19.773438 28.550781 -17.992188 28.34375 -16.171875 C 27.894531 -12.296875 26.453125 -8.773438 24.015625 -5.609375 C 21.578125 -2.453125 18.71875 0.113281 15.4375 2.09375 Z M 15.4375 2.09375 "/></g></g></g><g fill="#2e3192" fill-opacity="1"><g transform="translate(127.913075, 122.325477)"><g><path d="M 32 -4.6875 C 30.8125 -4.789062 29.84375 -5.320312 29.09375 -6.28125 C 28.351562 -7.238281 27.765625 -8.382812 27.328125 -9.71875 C 26.898438 -11.050781 26.554688 -12.363281 26.296875 -13.65625 C 26.046875 -14.945312 25.863281 -15.992188 25.75 -16.796875 C 24.625 -14.648438 23.070312 -12.734375 21.09375 -11.046875 C 19.125 -9.367188 16.976562 -8.175781 14.65625 -7.46875 C 12.332031 -6.769531 10.0625 -6.738281 7.84375 -7.375 C 5.632812 -8.019531 3.679688 -9.550781 1.984375 -11.96875 C 0.316406 -14.457031 -0.78125 -17.234375 -1.3125 -20.296875 C -1.851562 -23.359375 -1.90625 -26.472656 -1.46875 -29.640625 C -1.039062 -32.804688 -0.265625 -35.671875 0.859375 -38.234375 C 1.972656 -40.554688 3.410156 -42.703125 5.171875 -44.671875 C 6.941406 -46.640625 8.945312 -48.140625 11.1875 -49.171875 C 13.425781 -50.210938 15.695312 -50.539062 18 -50.15625 C 20.3125 -49.769531 22.550781 -48.4375 24.71875 -46.15625 C 26 -44.820312 27.070312 -43.640625 27.9375 -42.609375 C 28.800781 -41.578125 29.507812 -40.453125 30.0625 -39.234375 C 30.625 -38.015625 31.070312 -36.441406 31.40625 -34.515625 L 34.703125 -15.71875 C 34.804688 -14.988281 34.984375 -13.988281 35.234375 -12.71875 C 35.484375 -11.457031 35.613281 -10.195312 35.625 -8.9375 C 35.644531 -7.6875 35.390625 -6.644531 34.859375 -5.8125 C 34.328125 -4.988281 33.375 -4.613281 32 -4.6875 Z M 16 -25.546875 C 16.8125 -25.660156 17.582031 -26.226562 18.3125 -27.25 C 19.050781 -28.28125 19.691406 -29.394531 20.234375 -30.59375 C 20.785156 -31.800781 21.117188 -32.722656 21.234375 -33.359375 C 21.691406 -34.921875 21.585938 -36.234375 20.921875 -37.296875 C 20.265625 -38.367188 19.175781 -38.457031 17.65625 -37.5625 C 16.644531 -37 15.738281 -35.910156 14.9375 -34.296875 C 14.144531 -32.679688 13.628906 -31.3125 13.390625 -30.1875 C 13.210938 -29.070312 13.234375 -27.984375 13.453125 -26.921875 C 13.671875 -25.859375 14.519531 -25.398438 16 -25.546875 Z M 16 -25.546875 "/></g></g></g><g fill="#2e3192" fill-opacity="1"><g transform="translate(160.811107, 117.63182)"><g/></g></g><g fill="#2e3192" fill-opacity="1"><g transform="translate(180.979716, 115.235563)"><g><path d="M 29.484375 -2.625 C 28.046875 -1.957031 26.773438 -2.117188 25.671875 -3.109375 C 24.578125 -4.109375 23.816406 -5.203125 23.390625 -6.390625 C 21.046875 -4.304688 18.71875 -3.097656 16.40625 -2.765625 C 14.09375 -2.441406 11.910156 -2.753906 9.859375 -3.703125 C 7.816406 -4.660156 6.019531 -6.09375 4.46875 -8 C 2.925781 -9.90625 1.734375 -12.039062 0.890625 -14.40625 C 0.0546875 -16.78125 -0.253906 -19.195312 -0.046875 -21.65625 C 0.222656 -24.863281 1.082031 -28 2.53125 -31.0625 C 3.976562 -34.132812 5.753906 -36.878906 7.859375 -39.296875 C 8.722656 -40.304688 9.738281 -41.148438 10.90625 -41.828125 C 12.082031 -42.503906 13.175781 -43.222656 14.1875 -43.984375 C 15.207031 -44.742188 15.878906 -45.675781 16.203125 -46.78125 C 16.628906 -48.25 16.726562 -49.941406 16.5 -51.859375 C 16.28125 -53.773438 16.035156 -55.71875 15.765625 -57.6875 C 15.503906 -59.664062 15.46875 -61.539062 15.65625 -63.3125 C 15.84375 -65.09375 16.535156 -66.613281 17.734375 -67.875 C 19.335938 -69.5625 20.765625 -70.285156 22.015625 -70.046875 C 23.265625 -69.804688 24.347656 -69.015625 25.265625 -67.671875 C 26.191406 -66.328125 26.910156 -64.828125 27.421875 -63.171875 C 27.929688 -61.515625 28.234375 -60.117188 28.328125 -58.984375 C 28.710938 -55.140625 29.0625 -51.296875 29.375 -47.453125 C 29.6875 -43.617188 30.03125 -39.789062 30.40625 -35.96875 C 30.820312 -31.863281 31.21875 -27.722656 31.59375 -23.546875 C 31.96875 -19.367188 32.054688 -15.171875 31.859375 -10.953125 C 31.859375 -10.128906 31.847656 -9.160156 31.828125 -8.046875 C 31.816406 -6.929688 31.664062 -5.867188 31.375 -4.859375 C 31.09375 -3.859375 30.460938 -3.113281 29.484375 -2.625 Z M 13.421875 -19.8125 C 14.253906 -18.851562 15.046875 -18.523438 15.796875 -18.828125 C 16.554688 -19.140625 17.203125 -19.738281 17.734375 -20.625 C 18.273438 -21.519531 18.554688 -22.269531 18.578125 -22.875 C 18.765625 -24.726562 18.53125 -26.742188 17.875 -28.921875 C 17.21875 -31.109375 16.773438 -33.144531 16.546875 -35.03125 C 15.410156 -33.988281 14.390625 -32.546875 13.484375 -30.703125 C 12.585938 -28.859375 12.066406 -26.945312 11.921875 -24.96875 C 11.785156 -23 12.285156 -21.28125 13.421875 -19.8125 Z M 13.421875 -19.8125 "/></g></g></g><g fill="#2e3192" fill-opacity="1"><g transform="translate(210.515171, 112.684749)"><g><path d="M 32.3125 -1.5625 C 31.144531 -1.78125 30.234375 -2.398438 29.578125 -3.421875 C 28.921875 -4.441406 28.441406 -5.632812 28.140625 -7 C 27.835938 -8.375 27.625 -9.71875 27.5 -11.03125 C 27.375 -12.351562 27.289062 -13.414062 27.25 -14.21875 C 25.925781 -12.1875 24.195312 -10.429688 22.0625 -8.953125 C 19.9375 -7.472656 17.679688 -6.492188 15.296875 -6.015625 C 12.921875 -5.546875 10.664062 -5.734375 8.53125 -6.578125 C 6.394531 -7.429688 4.597656 -9.144531 3.140625 -11.71875 C 1.722656 -14.351562 0.894531 -17.21875 0.65625 -20.3125 C 0.414062 -23.414062 0.664062 -26.523438 1.40625 -29.640625 C 2.144531 -32.753906 3.203125 -35.53125 4.578125 -37.96875 C 5.898438 -40.175781 7.535156 -42.171875 9.484375 -43.953125 C 11.429688 -45.742188 13.570312 -47.046875 15.90625 -47.859375 C 18.238281 -48.671875 20.53125 -48.773438 22.78125 -48.171875 C 25.039062 -47.566406 27.140625 -46.019531 29.078125 -43.53125 C 30.222656 -42.082031 31.175781 -40.804688 31.9375 -39.703125 C 32.695312 -38.597656 33.296875 -37.410156 33.734375 -36.140625 C 34.171875 -34.867188 34.460938 -33.253906 34.609375 -31.296875 L 36.078125 -12.28125 C 36.109375 -11.539062 36.1875 -10.53125 36.3125 -9.25 C 36.445312 -7.96875 36.457031 -6.695312 36.34375 -5.4375 C 36.226562 -4.1875 35.863281 -3.175781 35.25 -2.40625 C 34.644531 -1.632812 33.664062 -1.351562 32.3125 -1.5625 Z M 18.40625 -23.859375 C 19.21875 -23.898438 20.039062 -24.394531 20.875 -25.34375 C 21.707031 -26.289062 22.453125 -27.335938 23.109375 -28.484375 C 23.765625 -29.640625 24.179688 -30.519531 24.359375 -31.125 C 24.972656 -32.644531 25 -33.96875 24.4375 -35.09375 C 23.882812 -36.226562 22.816406 -36.421875 21.234375 -35.671875 C 20.160156 -35.210938 19.148438 -34.210938 18.203125 -32.671875 C 17.253906 -31.140625 16.601562 -29.832031 16.25 -28.75 C 15.96875 -27.644531 15.882812 -26.550781 16 -25.46875 C 16.113281 -24.394531 16.914062 -23.859375 18.40625 -23.859375 Z M 18.40625 -23.859375 "/></g></g></g><g fill="#2e3192" fill-opacity="1"><g transform="translate(243.713438, 111.204622)"><g/></g></g><g fill="#2e3192" fill-opacity="1"><g transform="translate(263.922884, 110.705395)"><g><path d="M 14.703125 5.140625 C 12.804688 5.785156 10.703125 6.171875 8.390625 6.296875 C 6.085938 6.421875 4.144531 5.722656 2.5625 4.203125 C 0.96875 2.679688 0.132812 1.113281 0.0625 -0.5 C 0 -2.125 0.625 -3.738281 1.9375 -5.34375 C 2.96875 -6.601562 4.234375 -7.625 5.734375 -8.40625 C 7.242188 -9.195312 8.765625 -9.960938 10.296875 -10.703125 C 11.835938 -11.453125 13.253906 -12.300781 14.546875 -13.25 C 15.847656 -14.207031 16.816406 -15.492188 17.453125 -17.109375 C 18.097656 -18.585938 18.210938 -19.835938 17.796875 -20.859375 C 17.378906 -21.878906 16.738281 -22.800781 15.875 -23.625 C 15.007812 -24.457031 14.140625 -25.316406 13.265625 -26.203125 C 11.816406 -27.859375 10.785156 -29.707031 10.171875 -31.75 C 9.566406 -33.789062 9.5625 -35.921875 10.15625 -38.140625 C 11.03125 -41.691406 12.867188 -44.421875 15.671875 -46.328125 C 18.484375 -48.242188 21.523438 -49.675781 24.796875 -50.625 C 25.953125 -50.9375 27.304688 -51.226562 28.859375 -51.5 C 30.421875 -51.78125 31.960938 -51.875 33.484375 -51.78125 C 35.003906 -51.6875 36.378906 -51.304688 37.609375 -50.640625 C 38.847656 -49.972656 39.722656 -48.851562 40.234375 -47.28125 C 40.953125 -45.25 40.890625 -43.597656 40.046875 -42.328125 C 39.210938 -41.066406 37.941406 -40.007812 36.234375 -39.15625 C 34.535156 -38.3125 32.75 -37.503906 30.875 -36.734375 C 29 -35.960938 27.375 -35.066406 26 -34.046875 C 24.625 -33.023438 23.851562 -31.703125 23.6875 -30.078125 C 23.601562 -28.722656 23.988281 -27.515625 24.84375 -26.453125 C 25.695312 -25.390625 26.691406 -24.40625 27.828125 -23.5 C 28.960938 -22.601562 29.820312 -21.644531 30.40625 -20.625 C 31.320312 -18.976562 31.796875 -17.257812 31.828125 -15.46875 C 31.859375 -13.675781 31.585938 -11.910156 31.015625 -10.171875 C 29.796875 -6.472656 27.675781 -3.3125 24.65625 -0.6875 C 21.632812 1.925781 18.316406 3.867188 14.703125 5.140625 Z M 14.703125 5.140625 "/></g></g></g><g fill="#2e3192" fill-opacity="1"><g transform="translate(299.953205, 111.312995)"><g><path d="M 32.28125 1.828125 C 31.15625 1.484375 30.320312 0.769531 29.78125 -0.3125 C 29.238281 -1.40625 28.890625 -2.648438 28.734375 -4.046875 C 28.578125 -5.441406 28.503906 -6.796875 28.515625 -8.109375 C 28.523438 -9.429688 28.550781 -10.492188 28.59375 -11.296875 C 27.0625 -9.421875 25.15625 -7.851562 22.875 -6.59375 C 20.601562 -5.34375 18.257812 -4.601562 15.84375 -4.375 C 13.4375 -4.15625 11.210938 -4.578125 9.171875 -5.640625 C 7.128906 -6.710938 5.519531 -8.609375 4.34375 -11.328125 C 3.207031 -14.085938 2.679688 -17.023438 2.765625 -20.140625 C 2.859375 -23.253906 3.4375 -26.316406 4.5 -29.328125 C 5.5625 -32.347656 6.894531 -35 8.5 -37.28125 C 10.050781 -39.34375 11.890625 -41.160156 14.015625 -42.734375 C 16.140625 -44.304688 18.40625 -45.375 20.8125 -45.9375 C 23.21875 -46.507812 25.507812 -46.375 27.6875 -45.53125 C 29.875 -44.695312 31.796875 -42.9375 33.453125 -40.25 C 34.441406 -38.695312 35.253906 -37.328125 35.890625 -36.140625 C 36.535156 -34.960938 37.007812 -33.71875 37.3125 -32.40625 C 37.613281 -31.101562 37.738281 -29.476562 37.6875 -27.53125 L 37.15625 -8.453125 C 37.113281 -7.710938 37.085938 -6.695312 37.078125 -5.40625 C 37.078125 -4.113281 36.953125 -2.847656 36.703125 -1.609375 C 36.460938 -0.378906 36 0.582031 35.3125 1.28125 C 34.625 1.976562 33.613281 2.160156 32.28125 1.828125 Z M 20.796875 -21.8125 C 21.609375 -21.769531 22.476562 -22.175781 23.40625 -23.03125 C 24.332031 -23.894531 25.179688 -24.863281 25.953125 -25.9375 C 26.722656 -27.007812 27.234375 -27.835938 27.484375 -28.421875 C 28.242188 -29.859375 28.40625 -31.164062 27.96875 -32.34375 C 27.53125 -33.53125 26.484375 -33.832031 24.828125 -33.25 C 23.722656 -32.914062 22.617188 -32.035156 21.515625 -30.609375 C 20.410156 -29.179688 19.625 -27.945312 19.15625 -26.90625 C 18.757812 -25.832031 18.5625 -24.753906 18.5625 -23.671875 C 18.570312 -22.585938 19.316406 -21.96875 20.796875 -21.8125 Z M 20.796875 -21.8125 "/></g></g></g><g fill="#2e3192" fill-opacity="1"><g transform="translate(332.97813, 113.200834)"><g><path d="M 12.609375 1.21875 C 9.109375 0.945312 6.734375 -0.128906 5.484375 -2.015625 C 4.242188 -3.898438 3.539062 -6.445312 3.375 -9.65625 C 3.15625 -13.6875 3.253906 -17.679688 3.671875 -21.640625 C 4.097656 -25.609375 4.5625 -29.539062 5.0625 -33.4375 C 5.539062 -36.96875 5.9375 -40.535156 6.25 -44.140625 C 6.5625 -47.753906 7.125 -51.289062 7.9375 -54.75 C 8.207031 -56.132812 8.664062 -57.695312 9.3125 -59.4375 C 9.957031 -61.175781 11.046875 -62.273438 12.578125 -62.734375 C 13.972656 -63.148438 15.222656 -62.910156 16.328125 -62.015625 C 17.429688 -61.128906 18.226562 -60.085938 18.71875 -58.890625 C 19.34375 -57.472656 19.578125 -55.972656 19.421875 -54.390625 C 19.265625 -52.804688 19.148438 -51.273438 19.078125 -49.796875 C 18.941406 -47.640625 18.800781 -45.484375 18.65625 -43.328125 C 18.519531 -41.171875 18.242188 -39.023438 17.828125 -36.890625 C 19.546875 -38.484375 21.5625 -39.675781 23.875 -40.46875 C 26.195312 -41.257812 28.484375 -41 30.734375 -39.6875 C 33.046875 -38.394531 34.675781 -36.679688 35.625 -34.546875 C 36.570312 -32.410156 37.007812 -30.085938 36.9375 -27.578125 C 36.863281 -25.078125 36.410156 -22.539062 35.578125 -19.96875 C 34.753906 -17.40625 33.742188 -14.992188 32.546875 -12.734375 C 31.347656 -10.472656 30.101562 -8.59375 28.8125 -7.09375 C 26.863281 -4.757812 24.46875 -2.726562 21.625 -1 C 18.789062 0.71875 15.785156 1.457031 12.609375 1.21875 Z M 13.703125 -12.21875 C 15.335938 -12.195312 16.847656 -12.726562 18.234375 -13.8125 C 19.628906 -14.894531 20.859375 -16.203125 21.921875 -17.734375 C 22.992188 -19.265625 23.789062 -20.648438 24.3125 -21.890625 C 24.738281 -22.796875 25.035156 -23.78125 25.203125 -24.84375 C 25.378906 -25.914062 25.28125 -26.773438 24.90625 -27.421875 C 24.53125 -28.078125 23.675781 -28.226562 22.34375 -27.875 C 20.75 -27.425781 19.46875 -26.601562 18.5 -25.40625 C 17.539062 -24.207031 16.78125 -22.820312 16.21875 -21.25 C 15.65625 -19.675781 15.191406 -18.070312 14.828125 -16.4375 C 14.460938 -14.8125 14.085938 -13.40625 13.703125 -12.21875 Z M 13.703125 -12.21875 "/></g></g></g><g fill="#2e3192" fill-opacity="1"><g transform="translate(363.307484, 116.024075)"><g><path d="M 14.0625 -2.71875 C 10.988281 -3.675781 8.660156 -5.25 7.078125 -7.4375 C 5.492188 -9.625 4.550781 -12.132812 4.25 -14.96875 C 3.945312 -17.8125 4.144531 -20.71875 4.84375 -23.6875 C 5.550781 -26.664062 6.65625 -29.4375 8.15625 -32 C 9.664062 -34.5625 11.414062 -36.660156 13.40625 -38.296875 C 15.925781 -40.347656 18.953125 -41.71875 22.484375 -42.40625 C 26.023438 -43.09375 29.335938 -42.75 32.421875 -41.375 C 34.046875 -40.6875 35.472656 -39.628906 36.703125 -38.203125 C 37.941406 -36.773438 38.859375 -35.203125 39.453125 -33.484375 C 40.046875 -31.773438 40.160156 -30.070312 39.796875 -28.375 C 39.429688 -26.6875 38.476562 -25.160156 36.9375 -23.796875 C 35.46875 -22.566406 33.75 -21.738281 31.78125 -21.3125 C 29.8125 -20.894531 27.90625 -20.644531 26.0625 -20.5625 C 24.820312 -20.519531 23.5625 -20.546875 22.28125 -20.640625 C 21.007812 -20.742188 19.882812 -20.570312 18.90625 -20.125 C 17.925781 -19.675781 17.253906 -18.585938 16.890625 -16.859375 C 16.515625 -15.078125 16.648438 -13.9375 17.296875 -13.4375 C 17.941406 -12.945312 18.847656 -12.878906 20.015625 -13.234375 C 21.191406 -13.585938 22.441406 -14.113281 23.765625 -14.8125 C 25.085938 -15.519531 26.300781 -16.210938 27.40625 -16.890625 C 28.519531 -17.566406 29.296875 -17.976562 29.734375 -18.125 C 32.003906 -18.769531 33.550781 -18.628906 34.375 -17.703125 C 35.207031 -16.773438 35.546875 -15.484375 35.390625 -13.828125 C 35.242188 -12.179688 34.769531 -10.554688 33.96875 -8.953125 C 33.175781 -7.359375 32.289062 -6.1875 31.3125 -5.4375 C 28.957031 -3.632812 26.195312 -2.519531 23.03125 -2.09375 C 19.875 -1.664062 16.882812 -1.875 14.0625 -2.71875 Z M 24.109375 -27.25 C 24.742188 -26.96875 25.613281 -26.867188 26.71875 -26.953125 C 27.820312 -27.046875 28.78125 -27.328125 29.59375 -27.796875 C 30.40625 -28.273438 30.6875 -28.867188 30.4375 -29.578125 C 29.1875 -29.953125 27.992188 -29.941406 26.859375 -29.546875 C 25.722656 -29.148438 24.804688 -28.382812 24.109375 -27.25 Z M 24.109375 -27.25 "/></g></g></g><g fill="#2e3192" fill-opacity="1"><g transform="translate(395.027287, 120.191137)"><g><path d="M 29.203125 4.765625 C 27.648438 5.046875 26.460938 4.566406 25.640625 3.328125 C 24.828125 2.097656 24.359375 0.859375 24.234375 -0.390625 C 21.453125 1.046875 18.898438 1.632812 16.578125 1.375 C 14.253906 1.125 12.21875 0.285156 10.46875 -1.140625 C 8.726562 -2.578125 7.34375 -4.40625 6.3125 -6.625 C 5.289062 -8.851562 4.664062 -11.222656 4.4375 -13.734375 C 4.21875 -16.242188 4.507812 -18.664062 5.3125 -21 C 6.394531 -24.039062 8.015625 -26.863281 10.171875 -29.46875 C 12.328125 -32.082031 14.722656 -34.296875 17.359375 -36.109375 C 18.460938 -36.890625 19.660156 -37.460938 20.953125 -37.828125 C 22.242188 -38.191406 23.476562 -38.613281 24.65625 -39.09375 C 25.832031 -39.570312 26.710938 -40.3125 27.296875 -41.3125 C 28.066406 -42.613281 28.578125 -44.222656 28.828125 -46.140625 C 29.085938 -48.054688 29.335938 -50.003906 29.578125 -51.984375 C 29.828125 -53.960938 30.257812 -55.785156 30.875 -57.453125 C 31.5 -59.128906 32.546875 -60.429688 34.015625 -61.359375 C 35.992188 -62.597656 37.554688 -62.945312 38.703125 -62.40625 C 39.847656 -61.863281 40.703125 -60.820312 41.265625 -59.28125 C 41.835938 -57.75 42.160156 -56.117188 42.234375 -54.390625 C 42.316406 -52.671875 42.257812 -51.25 42.0625 -50.125 C 41.488281 -46.300781 40.878906 -42.488281 40.234375 -38.6875 C 39.585938 -34.882812 38.972656 -31.085938 38.390625 -27.296875 C 37.765625 -23.210938 37.113281 -19.101562 36.4375 -14.96875 C 35.769531 -10.832031 34.8125 -6.742188 33.5625 -2.703125 C 33.363281 -1.921875 33.117188 -0.988281 32.828125 0.09375 C 32.546875 1.175781 32.140625 2.171875 31.609375 3.078125 C 31.085938 3.984375 30.285156 4.546875 29.203125 4.765625 Z M 17.921875 -15.875 C 18.484375 -14.738281 19.164062 -14.222656 19.96875 -14.328125 C 20.78125 -14.441406 21.554688 -14.859375 22.296875 -15.578125 C 23.046875 -16.304688 23.5 -16.96875 23.65625 -17.5625 C 24.3125 -19.300781 24.585938 -21.3125 24.484375 -23.59375 C 24.390625 -25.875 24.46875 -27.953125 24.71875 -29.828125 C 23.363281 -29.097656 22.019531 -27.953125 20.6875 -26.390625 C 19.363281 -24.835938 18.390625 -23.117188 17.765625 -21.234375 C 17.140625 -19.359375 17.191406 -17.570312 17.921875 -15.875 Z M 17.921875 -15.875 "/></g></g></g><g fill="#2e3192" fill-opacity="1"><g transform="translate(424.264438, 125.040329)"><g><path d="M 28.734375 2.265625 C 24.890625 4.097656 21.257812 4.585938 17.84375 3.734375 C 14.4375 2.878906 11.632812 1.03125 9.4375 -1.8125 C 7.238281 -4.65625 5.925781 -8.054688 5.5 -12.015625 C 5.226562 -15.640625 5.53125 -19.378906 6.40625 -23.234375 C 7.28125 -27.097656 8.800781 -30.65625 10.96875 -33.90625 C 13.132812 -37.15625 15.882812 -39.671875 19.21875 -41.453125 C 21.46875 -42.640625 23.976562 -43.269531 26.75 -43.34375 C 29.53125 -43.414062 32.164062 -42.96875 34.65625 -42 C 37.144531 -41.039062 39.109375 -39.546875 40.546875 -37.515625 C 41.992188 -35.484375 42.457031 -32.90625 41.9375 -29.78125 C 42.445312 -26.90625 42.5625 -23.890625 42.28125 -20.734375 C 42.007812 -17.585938 41.335938 -14.519531 40.265625 -11.53125 C 39.191406 -8.539062 37.691406 -5.828125 35.765625 -3.390625 C 33.835938 -0.960938 31.492188 0.921875 28.734375 2.265625 Z M 27.765625 -11.90625 C 28.523438 -11.957031 29.203125 -12.488281 29.796875 -13.5 C 30.398438 -14.519531 30.914062 -15.726562 31.34375 -17.125 C 31.769531 -18.519531 32.09375 -19.847656 32.3125 -21.109375 C 32.539062 -22.378906 32.664062 -23.21875 32.6875 -23.625 C 32 -23.289062 31.320312 -22.84375 30.65625 -22.28125 C 29.988281 -21.726562 29.414062 -21.15625 28.9375 -20.5625 C 27.144531 -18.25 26.007812 -16.210938 25.53125 -14.453125 C 25.0625 -12.691406 25.804688 -11.84375 27.765625 -11.90625 Z M 27.765625 -11.90625 "/></g></g></g><g fill="#2e3192" fill-opacity="1"><g transform="translate(457.125431, 131.70702)"><g><path d="M 6.375 -2.046875 C 5.53125 -5.046875 5.207031 -8.242188 5.40625 -11.640625 C 5.613281 -15.046875 6.191406 -18.472656 7.140625 -21.921875 C 8.097656 -25.378906 9.210938 -28.722656 10.484375 -31.953125 C 11.753906 -35.191406 13.050781 -38.175781 14.375 -40.90625 C 14.84375 -41.894531 15.4375 -43.050781 16.15625 -44.375 C 16.875 -45.695312 17.71875 -46.894531 18.6875 -47.96875 C 19.65625 -49.039062 20.753906 -49.671875 21.984375 -49.859375 C 23.515625 -50.085938 24.726562 -49.773438 25.625 -48.921875 C 26.519531 -48.066406 27.171875 -46.925781 27.578125 -45.5 C 27.984375 -44.070312 28.226562 -42.628906 28.3125 -41.171875 C 28.394531 -39.722656 28.410156 -38.476562 28.359375 -37.4375 C 29.859375 -38.945312 31.519531 -40.285156 33.34375 -41.453125 C 35.175781 -42.628906 37.128906 -43.375 39.203125 -43.6875 C 41.273438 -44 43.320312 -43.613281 45.34375 -42.53125 C 47.125 -41.601562 48.613281 -40.21875 49.8125 -38.375 C 51.019531 -36.53125 51.910156 -34.539062 52.484375 -32.40625 C 53.054688 -30.28125 53.203125 -28.238281 52.921875 -26.28125 C 52.671875 -24.75 52.039062 -23.445312 51.03125 -22.375 C 50.019531 -21.3125 48.679688 -20.925781 47.015625 -21.21875 C 45.492188 -21.519531 44.425781 -22.253906 43.8125 -23.421875 C 43.207031 -24.585938 42.453125 -25.707031 41.546875 -26.78125 C 40.171875 -28.519531 38.722656 -29.410156 37.203125 -29.453125 C 35.679688 -29.492188 34.191406 -29.050781 32.734375 -28.125 C 31.285156 -27.207031 29.894531 -26.078125 28.5625 -24.734375 C 27.164062 -23.347656 25.863281 -21.867188 24.65625 -20.296875 C 23.457031 -18.722656 22.457031 -17.023438 21.65625 -15.203125 C 20.71875 -13.210938 19.910156 -11.164062 19.234375 -9.0625 C 18.566406 -6.96875 17.804688 -4.914062 16.953125 -2.90625 C 16.117188 -1.019531 15.007812 0.457031 13.625 1.53125 C 12.238281 2.613281 10.867188 2.929688 9.515625 2.484375 C 8.160156 2.035156 7.113281 0.523438 6.375 -2.046875 Z M 6.375 -2.046875 "/></g></g></g><g fill="#2e3192" fill-opacity="1"><g transform="translate(496.594507, 141.900285)"><g><path d="M 15.703125 -45.59375 C 15.328125 -47.25 15.476562 -48.71875 16.15625 -50 C 16.84375 -51.28125 17.757812 -52.210938 18.90625 -52.796875 C 20.0625 -53.378906 21.222656 -53.429688 22.390625 -52.953125 C 23.554688 -52.484375 24.4375 -51.316406 25.03125 -49.453125 C 25.695312 -47.566406 25.675781 -45.953125 24.96875 -44.609375 C 24.257812 -43.273438 23.265625 -42.332031 21.984375 -41.78125 C 20.710938 -41.238281 19.453125 -41.25 18.203125 -41.8125 C 16.953125 -42.375 16.117188 -43.632812 15.703125 -45.59375 Z M 9.859375 1.671875 C 8.066406 2.273438 6.738281 2.242188 5.875 1.578125 C 5.007812 0.910156 4.476562 -0.117188 4.28125 -1.515625 C 4.082031 -2.910156 4.054688 -4.425781 4.203125 -6.0625 C 4.359375 -7.707031 4.601562 -9.238281 4.9375 -10.65625 C 5.28125 -12.070312 5.515625 -13.109375 5.640625 -13.765625 C 6.203125 -16.003906 6.851562 -18.226562 7.59375 -20.4375 C 8.332031 -22.65625 9.085938 -24.847656 9.859375 -27.015625 C 10.253906 -28.171875 10.660156 -29.476562 11.078125 -30.9375 C 11.492188 -32.40625 12.039062 -33.757812 12.71875 -35 C 13.394531 -36.25 14.304688 -37.171875 15.453125 -37.765625 C 17.378906 -38.816406 18.835938 -39.113281 19.828125 -38.65625 C 20.816406 -38.195312 21.46875 -37.285156 21.78125 -35.921875 C 22.101562 -34.566406 22.210938 -33.046875 22.109375 -31.359375 C 22.003906 -29.671875 21.816406 -28.039062 21.546875 -26.46875 C 21.273438 -24.894531 21.0625 -23.707031 20.90625 -22.90625 C 20.46875 -20.144531 19.773438 -17.476562 18.828125 -14.90625 C 17.878906 -12.332031 16.828125 -9.765625 15.671875 -7.203125 C 15.273438 -6.335938 14.828125 -5.273438 14.328125 -4.015625 C 13.828125 -2.753906 13.226562 -1.585938 12.53125 -0.515625 C 11.84375 0.546875 10.953125 1.273438 9.859375 1.671875 Z M 9.859375 1.671875 "/></g></g></g><g fill="#2e3192" fill-opacity="1"><g transform="translate(506.912437, 144.639691)"><g><path d="M 30.890625 9.609375 C 29.867188 9.003906 29.222656 8.109375 28.953125 6.921875 C 28.691406 5.742188 28.65625 4.457031 28.84375 3.0625 C 29.03125 1.664062 29.289062 0.332031 29.625 -0.9375 C 29.957031 -2.21875 30.242188 -3.242188 30.484375 -4.015625 C 28.546875 -2.554688 26.316406 -1.5 23.796875 -0.84375 C 21.285156 -0.1875 18.832031 -0.0390625 16.4375 -0.40625 C 14.050781 -0.769531 11.992188 -1.71875 10.265625 -3.25 C 8.546875 -4.789062 7.441406 -7.019531 6.953125 -9.9375 C 6.535156 -12.894531 6.742188 -15.867188 7.578125 -18.859375 C 8.421875 -21.859375 9.722656 -24.691406 11.484375 -27.359375 C 13.242188 -30.023438 15.179688 -32.269531 17.296875 -34.09375 C 19.304688 -35.71875 21.53125 -37.035156 23.96875 -38.046875 C 26.414062 -39.054688 28.875 -39.539062 31.34375 -39.5 C 33.8125 -39.46875 36.003906 -38.78125 37.921875 -37.4375 C 39.835938 -36.09375 41.273438 -33.921875 42.234375 -30.921875 C 42.828125 -29.171875 43.285156 -27.640625 43.609375 -26.328125 C 43.941406 -25.023438 44.09375 -23.707031 44.0625 -22.375 C 44.039062 -21.039062 43.765625 -19.425781 43.234375 -17.53125 L 38.09375 0.828125 C 37.875 1.535156 37.601562 2.515625 37.28125 3.765625 C 36.957031 5.015625 36.53125 6.207031 36 7.34375 C 35.46875 8.488281 34.78125 9.316406 33.9375 9.828125 C 33.101562 10.335938 32.085938 10.265625 30.890625 9.609375 Z M 25.484375 -16.109375 C 26.253906 -15.867188 27.191406 -16.050781 28.296875 -16.65625 C 29.410156 -17.257812 30.472656 -17.984375 31.484375 -18.828125 C 32.492188 -19.679688 33.1875 -20.363281 33.5625 -20.875 C 34.65625 -22.101562 35.132812 -23.34375 35 -24.59375 C 34.863281 -25.84375 33.921875 -26.390625 32.171875 -26.234375 C 31.003906 -26.171875 29.710938 -25.582031 28.296875 -24.46875 C 26.878906 -23.351562 25.816406 -22.335938 25.109375 -21.421875 C 24.472656 -20.492188 24.023438 -19.503906 23.765625 -18.453125 C 23.503906 -17.398438 24.078125 -16.617188 25.484375 -16.109375 Z M 25.484375 -16.109375 "/></g></g></g></g></g></svg>
