<svg xmlns="http://www.w3.org/2000/svg" xmlns:xlink="http://www.w3.org/1999/xlink" width="270" zoomAndPan="magnify" viewBox="0 0 202.5 149.999998" height="200" preserveAspectRatio="xMidYMid meet" version="1.0"><defs><clipPath id="982c8d5e8d"><path d="M 20.519531 8.476562 L 187.359375 8.476562 L 187.359375 145.386719 L 20.519531 145.386719 Z M 20.519531 8.476562 " clip-rule="nonzero"/></clipPath></defs><g clip-path="url(#982c8d5e8d)"><path fill="#2e3192" d="M 186.980469 72.246094 C 186.925781 73.257812 186.925781 74.265625 186.925781 75.167969 C 186.925781 75.914062 186.925781 76.65625 186.871094 77.398438 C 186.871094 77.824219 186.820312 78.25 186.820312 78.675781 C 186.820312 79.207031 186.765625 79.683594 186.765625 80.214844 C 186.765625 80.746094 186.765625 81.277344 186.765625 81.863281 C 186.765625 82.234375 186.765625 82.605469 186.765625 82.980469 C 186.765625 83.351562 186.765625 83.777344 186.765625 84.148438 C 186.765625 84.308594 186.765625 84.519531 186.765625 84.679688 C 186.765625 85.902344 186.765625 87.125 186.765625 88.558594 L 186.765625 88.609375 C 186.765625 89.355469 186.765625 90.152344 186.714844 91 C 186.714844 91.746094 186.660156 92.542969 186.660156 93.285156 L 186.605469 94.347656 C 186.5 97.484375 186.394531 100.726562 186.128906 103.859375 C 185.863281 107.207031 185.703125 110.714844 185.703125 114.324219 C 185.757812 115.386719 185.808594 116.503906 185.863281 117.671875 C 185.96875 118.949219 186.023438 120.222656 186.074219 121.445312 C 186.074219 121.390625 186.074219 121.339844 186.074219 121.285156 C 186.074219 122.082031 186.074219 122.828125 186.128906 123.625 C 186.128906 124.101562 186.128906 124.582031 186.128906 125.003906 C 186.128906 126.175781 186.128906 127.078125 186.128906 127.980469 C 186.074219 128.9375 186.074219 129.785156 186.074219 130.582031 C 186.074219 130.902344 186.074219 131.222656 186.074219 131.539062 C 186.074219 132.867188 186.074219 134.25 185.917969 135.578125 C 185.808594 136.480469 185.703125 137.226562 185.4375 137.808594 C 185.332031 138.023438 185.226562 138.234375 185.121094 138.394531 C 185.121094 138.5 185.171875 138.554688 185.171875 138.660156 C 185.277344 139.191406 185.121094 139.722656 184.800781 140.148438 C 184.746094 140.253906 184.640625 140.308594 184.585938 140.359375 C 184.535156 140.574219 184.480469 140.785156 184.375 140.996094 C 184.109375 141.527344 183.632812 142.21875 182.78125 142.484375 L 182.675781 142.539062 C 182.355469 142.644531 182.039062 142.699219 181.71875 142.75 C 181.347656 142.804688 180.921875 142.804688 180.445312 142.804688 C 180.125 142.804688 179.804688 142.804688 179.433594 142.804688 C 178.902344 142.804688 178.371094 142.804688 177.839844 142.804688 C 177.46875 142.804688 177.097656 142.804688 176.671875 142.804688 C 175.078125 142.804688 173.429688 142.644531 171.835938 142.484375 L 171.519531 142.433594 C 169.816406 142.273438 168.0625 142.21875 166.3125 142.167969 L 164.34375 142.167969 C 162.910156 142.378906 161.476562 142.589844 160.09375 142.804688 L 159.933594 142.804688 C 158.394531 143.015625 156.746094 143.28125 155.152344 143.386719 C 154.199219 143.441406 153.1875 143.496094 152.230469 143.546875 C 151.539062 143.601562 150.796875 143.601562 150.105469 143.652344 C 149.414062 143.707031 148.671875 143.761719 147.980469 143.8125 C 146.8125 143.917969 145.644531 144.027344 144.421875 144.027344 L 144.15625 144.027344 C 143.996094 144.027344 143.890625 144.027344 143.730469 144.027344 C 143.464844 144.027344 143.253906 144.027344 143.09375 143.972656 C 142.507812 143.917969 141.976562 143.761719 141.550781 143.652344 C 141.445312 143.652344 141.394531 143.601562 141.285156 143.601562 C 141.074219 143.546875 140.808594 143.496094 140.597656 143.386719 C 140.011719 143.175781 139.269531 142.699219 139.003906 141.953125 C 138.789062 141.421875 138.738281 140.839844 138.738281 140.253906 L 138.738281 140.199219 C 138.683594 139.351562 138.628906 138.5 138.628906 137.757812 C 138.578125 136.054688 138.523438 134.355469 138.417969 132.816406 C 138.363281 131.914062 138.3125 131.113281 138.203125 130.316406 C 138.152344 129.628906 137.992188 128.9375 137.886719 128.246094 L 137.78125 127.714844 L 137.671875 127.183594 C 137.566406 126.917969 137.460938 126.707031 137.515625 126.492188 C 137.515625 126.332031 137.515625 126.226562 137.515625 126.066406 C 137.355469 125.003906 137.140625 123.730469 136.929688 122.507812 C 136.769531 121.605469 136.609375 120.648438 136.453125 119.90625 C 136.292969 119.214844 136.1875 118.523438 136.132812 117.832031 L 136.027344 117.25 L 135.867188 116.292969 C 135.707031 115.335938 135.546875 114.324219 135.441406 113.371094 L 135.441406 113.15625 C 135.28125 112.625 135.070312 112.148438 134.859375 111.667969 C 134.804688 111.511719 134.699219 111.296875 134.644531 111.136719 L 134.328125 110.289062 C 133.902344 109.226562 133.476562 108.109375 132.945312 107.101562 C 132.890625 106.941406 132.785156 106.835938 132.734375 106.675781 C 132.625 106.675781 132.519531 106.675781 132.414062 106.675781 C 132.148438 106.675781 131.828125 106.675781 131.5625 106.675781 C 131.246094 106.675781 130.980469 106.675781 130.660156 106.675781 C 130.5 106.675781 130.289062 106.675781 130.128906 106.675781 C 130.128906 106.835938 130.074219 106.941406 130.074219 107.101562 C 130.074219 107.367188 130.074219 107.683594 130.074219 107.949219 C 130.074219 108.214844 130.074219 108.429688 130.074219 108.695312 C 130.074219 109.121094 130.023438 109.597656 129.96875 110.023438 C 129.96875 110.183594 129.917969 110.339844 129.917969 110.5 C 129.863281 111.191406 129.757812 111.722656 129.652344 112.253906 C 129.597656 112.414062 129.597656 112.574219 129.542969 112.730469 C 129.542969 112.839844 129.492188 112.996094 129.4375 113.105469 C 129.386719 113.316406 129.332031 113.582031 129.332031 113.847656 C 129.332031 114.113281 129.332031 114.378906 129.332031 114.644531 L 129.332031 114.804688 C 129.332031 114.964844 129.277344 115.070312 129.226562 115.175781 C 129.386719 115.546875 129.171875 116.027344 128.746094 116.292969 C 128.535156 116.398438 128.375 116.398438 128.164062 116.453125 C 128.109375 116.453125 128.058594 116.453125 128.003906 116.453125 C 127.367188 116.558594 126.675781 116.609375 125.824219 116.664062 C 125.402344 116.664062 125.082031 116.71875 124.761719 116.71875 C 124.710938 116.71875 124.65625 116.71875 124.550781 116.71875 C 124.179688 116.71875 123.753906 116.71875 123.222656 116.664062 C 122.851562 116.664062 122.476562 116.664062 122.160156 116.664062 L 121.839844 116.664062 C 121.574219 116.664062 121.363281 116.664062 121.097656 116.664062 C 120.9375 116.664062 120.726562 116.664062 120.566406 116.664062 C 119.980469 116.664062 119.398438 116.664062 118.8125 116.609375 C 118.441406 116.609375 118.070312 116.609375 117.695312 116.558594 C 117.429688 116.558594 117.164062 116.558594 116.898438 116.558594 C 116.527344 116.558594 116.101562 116.558594 115.730469 116.558594 C 115.730469 116.609375 115.730469 116.609375 115.730469 116.664062 C 115.730469 116.71875 115.730469 116.769531 115.730469 116.875 C 115.730469 116.929688 115.730469 116.984375 115.730469 117.035156 C 115.730469 117.40625 115.730469 117.726562 115.675781 118.046875 L 115.675781 117.992188 C 115.675781 118.203125 115.625 118.363281 115.625 118.578125 C 115.570312 119 115.570312 119.375 115.570312 119.691406 C 115.570312 119.957031 115.570312 120.222656 115.570312 120.4375 C 115.570312 120.542969 115.570312 120.703125 115.570312 120.808594 C 115.570312 121.074219 115.570312 121.339844 115.570312 121.605469 C 115.570312 122.082031 115.519531 122.5625 115.570312 123.09375 C 115.570312 123.410156 115.625 123.675781 115.625 123.890625 C 115.625 123.996094 115.625 124.050781 115.675781 124.15625 C 115.730469 124.367188 115.730469 124.582031 115.730469 124.792969 C 115.730469 124.953125 115.730469 125.113281 115.785156 125.21875 C 115.835938 125.695312 115.835938 126.121094 115.785156 126.597656 C 115.785156 126.757812 115.730469 126.917969 115.675781 127.023438 C 115.625 127.183594 115.519531 127.394531 115.410156 127.554688 C 115.304688 127.660156 115.199219 127.820312 115.09375 127.925781 C 114.933594 128.085938 114.722656 128.191406 114.457031 128.246094 C 114.136719 128.351562 113.816406 128.351562 113.5 128.351562 C 113.285156 128.351562 113.019531 128.351562 112.808594 128.351562 C 112.597656 128.351562 112.382812 128.351562 112.171875 128.351562 C 111.800781 128.351562 111.320312 128.40625 110.84375 128.40625 C 110.628906 128.40625 110.417969 128.457031 110.207031 128.457031 C 109.992188 128.457031 109.726562 128.511719 109.460938 128.511719 C 109.035156 128.566406 108.613281 128.566406 108.1875 128.566406 C 107.65625 128.566406 107.175781 128.617188 106.644531 128.671875 C 106.113281 128.722656 105.582031 128.777344 105.050781 128.832031 C 104.679688 128.882812 104.308594 128.882812 103.882812 128.9375 C 102.980469 129.042969 102.023438 129.042969 101.171875 129.097656 C 99.152344 129.203125 97.292969 129.253906 95.59375 129.253906 C 95.542969 129.253906 95.488281 129.253906 95.382812 129.253906 C 95.167969 129.253906 95.011719 129.253906 94.796875 129.253906 C 94.585938 129.253906 94.425781 129.253906 94.214844 129.253906 L 93.949219 129.253906 C 93.628906 129.253906 93.257812 129.253906 92.9375 129.253906 C 92.777344 129.253906 92.566406 129.253906 92.40625 129.253906 L 92.246094 129.253906 C 92.035156 129.253906 91.769531 129.253906 91.554688 129.203125 C 91.238281 129.148438 90.601562 128.988281 90.441406 128.566406 C 90.386719 128.40625 90.386719 128.246094 90.386719 128.085938 C 90.386719 127.980469 90.386719 127.925781 90.386719 127.820312 C 90.386719 127.769531 90.386719 127.660156 90.386719 127.609375 C 90.386719 127.554688 90.386719 127.449219 90.386719 127.394531 C 90.386719 127.34375 90.386719 127.238281 90.386719 127.183594 L 90.386719 126.972656 C 90.386719 126.757812 90.386719 126.492188 90.386719 126.28125 C 90.386719 126.121094 90.386719 126.015625 90.386719 125.855469 C 90.386719 125.695312 90.386719 125.535156 90.386719 125.378906 L 90.386719 125.269531 C 90.386719 125.003906 90.441406 124.6875 90.441406 124.421875 C 90.492188 123.730469 90.441406 122.984375 90.386719 122.402344 L 90.386719 122.347656 C 90.335938 122.03125 90.335938 121.710938 90.28125 121.390625 C 90.28125 121.339844 90.226562 121.234375 90.226562 121.179688 C 90.175781 121.074219 90.175781 120.96875 90.175781 120.859375 C 90.121094 120.703125 90.121094 120.488281 90.070312 120.328125 C 90.015625 120.117188 90.121094 119.90625 90.335938 119.796875 C 90.335938 119.691406 90.386719 119.585938 90.441406 119.53125 C 90.546875 119.375 90.757812 119.214844 91.023438 119.160156 C 92.511719 118.894531 94 118.789062 95.167969 118.789062 C 95.382812 118.789062 95.59375 118.789062 95.808594 118.789062 C 96.019531 118.789062 96.285156 118.789062 96.496094 118.734375 L 96.921875 118.734375 C 97.292969 118.734375 97.613281 118.734375 97.984375 118.683594 C 98.355469 118.683594 98.78125 118.628906 99.152344 118.628906 C 99.683594 118.578125 100.164062 118.578125 100.695312 118.578125 C 101.015625 118.578125 101.332031 118.578125 101.652344 118.578125 C 101.8125 118.578125 101.96875 118.578125 102.128906 118.578125 C 102.554688 118.578125 102.925781 118.578125 103.296875 118.578125 C 103.40625 118.578125 103.457031 118.578125 103.5625 118.578125 C 103.722656 118.578125 103.9375 118.578125 104.09375 118.578125 C 104.359375 118.578125 104.625 118.578125 104.945312 118.578125 L 105 118.578125 C 105.050781 118.578125 105.15625 118.578125 105.210938 118.578125 C 105.316406 118.578125 105.371094 118.578125 105.476562 118.578125 C 105.636719 118.578125 105.742188 118.578125 105.847656 118.578125 C 105.902344 118.363281 105.902344 118.203125 105.953125 117.992188 C 105.953125 117.886719 105.953125 117.832031 105.953125 117.726562 C 105.953125 117.621094 106.007812 117.515625 106.007812 117.40625 C 106.0625 117.195312 106.0625 116.984375 106.113281 116.769531 C 106.113281 116.503906 106.167969 116.292969 106.21875 116.027344 C 106.273438 115.652344 106.328125 115.28125 106.328125 114.855469 C 106.328125 114.539062 106.378906 114.167969 106.378906 113.847656 L 106.378906 113.792969 C 106.378906 113.421875 106.433594 113.050781 106.433594 112.730469 L 106.433594 112.625 C 106.433594 112.253906 106.484375 111.882812 106.484375 111.5625 L 106.484375 111.246094 C 106.484375 111.136719 106.484375 111.03125 106.484375 110.925781 C 106.484375 110.820312 106.484375 110.714844 106.484375 110.605469 C 106.484375 110.339844 106.484375 110.128906 106.539062 109.808594 L 106.539062 109.386719 C 106.539062 109.332031 106.539062 109.332031 106.539062 109.277344 C 106.539062 109.226562 106.539062 109.226562 106.539062 109.171875 L 106.539062 109.121094 C 106.539062 109.011719 106.539062 108.960938 106.59375 108.855469 C 106.644531 108.695312 106.699219 108.640625 106.804688 108.480469 L 106.859375 108.429688 C 107.015625 108.269531 107.335938 108.109375 107.546875 108.054688 C 107.601562 108.054688 107.707031 108.003906 107.761719 108.003906 C 108.027344 107.949219 108.292969 107.949219 108.503906 107.949219 C 108.769531 107.949219 109.035156 107.949219 109.25 107.949219 C 109.886719 107.949219 110.523438 107.898438 111.160156 107.898438 C 111.585938 107.898438 112.011719 107.84375 112.488281 107.84375 C 112.863281 107.84375 113.285156 107.84375 113.660156 107.789062 C 114.191406 107.789062 114.722656 107.789062 115.304688 107.738281 C 115.785156 107.738281 116.210938 107.683594 116.6875 107.683594 C 116.953125 107.683594 117.21875 107.683594 117.429688 107.632812 C 117.644531 107.632812 117.804688 107.632812 118.015625 107.578125 C 118.492188 107.578125 118.972656 107.523438 119.449219 107.523438 L 119.664062 107.523438 C 119.980469 107.523438 120.300781 107.472656 120.671875 107.472656 C 120.777344 107.472656 120.832031 107.472656 120.9375 107.472656 L 121.097656 107.472656 C 121.257812 107.472656 121.46875 107.472656 121.628906 107.472656 L 121.789062 107.472656 C 121.894531 107.472656 122.054688 107.472656 122.160156 107.472656 L 122.160156 107.367188 C 122.160156 107.207031 122.105469 107.046875 122.105469 106.835938 C 122.105469 106.726562 122.105469 106.621094 122.105469 106.515625 C 122.105469 106.304688 122.105469 106.089844 122.105469 105.878906 C 122.105469 105.558594 122.105469 105.292969 122.160156 104.976562 L 122.160156 104.65625 C 122.210938 104.125 122.210938 103.539062 122.265625 103.007812 C 122.265625 102.585938 122.320312 102.160156 122.320312 101.789062 C 122.320312 101.574219 122.320312 101.363281 122.320312 101.148438 C 122.320312 100.992188 122.320312 100.832031 122.371094 100.671875 C 122.371094 100.566406 122.371094 100.457031 122.371094 100.300781 C 122.371094 100.191406 122.371094 100.085938 122.371094 99.980469 C 122.371094 99.769531 122.371094 99.554688 122.425781 99.289062 C 122.425781 99.078125 122.476562 98.8125 122.53125 98.597656 C 122.585938 98.386719 122.691406 98.175781 122.796875 97.910156 C 122.957031 97.535156 123.488281 97.324219 123.914062 97.324219 C 123.964844 97.324219 124.074219 97.324219 124.125 97.324219 C 123.648438 97.003906 123.167969 96.632812 122.691406 96.316406 C 121.523438 95.570312 120.351562 94.988281 119.183594 94.457031 C 118.070312 93.976562 116.898438 93.5 115.359375 92.914062 C 114.613281 92.703125 114.03125 92.542969 113.445312 92.382812 C 112.753906 92.222656 112.117188 92.117188 111.320312 92.0625 C 109.566406 91.851562 108.1875 91.691406 106.859375 91.585938 C 105.847656 91.53125 104.625 91.480469 103.457031 91.480469 C 102.34375 91.480469 101.386719 91.53125 100.429688 91.585938 C 98.25 91.746094 96.019531 92.171875 94 92.542969 C 93.152344 92.753906 91.980469 93.019531 90.867188 93.394531 C 90.175781 93.605469 89.484375 93.871094 88.792969 94.136719 C 88.476562 94.242188 88.15625 94.402344 87.835938 94.507812 C 87.253906 94.722656 86.667969 94.933594 86.085938 95.144531 C 85.554688 95.359375 85.019531 95.519531 84.4375 95.730469 C 83.535156 96.050781 82.628906 96.472656 81.886719 96.847656 C 81.515625 97.058594 81.089844 97.269531 80.71875 97.484375 C 80.613281 97.535156 80.558594 97.644531 80.453125 97.695312 C 80.503906 97.644531 80.558594 97.589844 80.558594 97.589844 C 79.601562 98.546875 78.59375 99.449219 77.636719 100.40625 C 77.105469 100.992188 76.574219 101.523438 76.042969 102.160156 C 75.5625 102.742188 75.191406 103.328125 74.765625 103.914062 C 73.96875 105.082031 73.226562 106.25 72.484375 107.472656 C 71.421875 109.386719 70.570312 111.351562 69.71875 113.371094 C 68.871094 115.335938 68.230469 117.355469 67.59375 119.375 C 66.851562 122.136719 66.425781 124.953125 65.734375 127.714844 C 65.523438 128.566406 65.363281 129.414062 65.203125 130.265625 C 64.992188 131.167969 64.832031 132.125 64.726562 133.082031 C 64.671875 133.558594 64.621094 134.039062 64.566406 134.570312 C 64.511719 134.992188 64.511719 135.417969 64.460938 135.789062 C 64.355469 136.585938 64.246094 137.4375 64.140625 138.234375 C 63.980469 139.246094 63.824219 140.199219 63.503906 141.15625 C 63.183594 142.058594 62.496094 142.804688 61.589844 143.175781 C 61.164062 143.386719 60.6875 143.496094 60.210938 143.601562 C 58.5625 143.972656 56.914062 143.972656 55.214844 144.183594 C 54.3125 144.292969 53.410156 144.398438 52.503906 144.449219 C 51.65625 144.503906 50.804688 144.558594 49.957031 144.664062 C 48.253906 144.824219 46.609375 145.035156 44.90625 145.089844 C 44.058594 145.140625 43.207031 145.195312 42.304688 145.195312 C 41.5625 145.195312 40.816406 145.246094 40.074219 145.246094 C 39.167969 145.300781 38.214844 145.355469 37.308594 145.40625 C 36.40625 145.460938 35.558594 145.460938 34.652344 145.511719 C 33.75 145.566406 32.847656 145.566406 31.945312 145.566406 C 30.933594 145.566406 29.925781 145.566406 28.914062 145.460938 C 28.277344 145.40625 27.695312 145.355469 27.054688 145.246094 C 26.898438 145.300781 26.738281 145.355469 26.578125 145.355469 C 26.367188 145.40625 26.152344 145.460938 25.941406 145.460938 C 25.621094 145.460938 25.25 145.511719 24.929688 145.40625 C 24.558594 145.300781 24.242188 145.195312 23.921875 145.035156 C 23.496094 144.980469 23.019531 144.824219 22.699219 144.558594 C 22.488281 144.398438 22.273438 144.183594 22.0625 144.027344 C 21.476562 143.546875 21.160156 142.910156 21.050781 142.167969 C 20.574219 141.6875 20.574219 141.105469 20.574219 140.519531 C 20.574219 139.933594 20.628906 139.351562 20.734375 138.765625 C 20.734375 138.554688 20.785156 138.339844 20.785156 138.128906 C 20.734375 137.96875 20.679688 137.757812 20.679688 137.542969 C 20.679688 137.4375 20.679688 137.382812 20.679688 137.277344 C 20.679688 137.117188 20.679688 136.960938 20.679688 136.800781 C 20.679688 136.269531 20.734375 135.738281 20.734375 135.152344 L 20.734375 134.25 C 20.734375 133.507812 20.785156 132.710938 20.785156 131.914062 C 20.785156 131.328125 20.734375 130.691406 20.679688 130.105469 C 20.679688 129.839844 20.628906 129.519531 20.628906 129.253906 C 20.519531 127.503906 20.574219 125.75 20.628906 124.050781 C 20.628906 123.515625 20.679688 123.039062 20.679688 122.507812 C 20.679688 122.082031 20.679688 121.65625 20.734375 121.285156 C 20.734375 120.4375 20.785156 119.640625 20.839844 118.789062 L 20.839844 118.578125 C 20.894531 116.769531 20.945312 115.230469 20.894531 113.792969 C 20.839844 112.996094 20.894531 112.199219 20.894531 111.457031 C 20.894531 111.085938 20.894531 110.714844 20.945312 110.289062 C 20.945312 109.863281 21 109.4375 21 109.066406 L 21 108.375 C 21 106.941406 21.050781 105.507812 21 104.070312 C 21 103.699219 21 103.273438 21 102.902344 C 21 102.371094 21 101.839844 21 101.308594 C 21 100.457031 20.945312 99.554688 20.945312 98.441406 C 20.945312 97.589844 21 96.6875 21.050781 95.835938 C 21.105469 94.933594 21.160156 93.976562 21.160156 93.074219 C 21.160156 91.375 21.265625 89.671875 21.371094 88.027344 L 21.425781 87.230469 C 21.425781 86.644531 21.425781 86.007812 21.425781 85.421875 C 21.425781 84.890625 21.425781 84.414062 21.425781 83.882812 C 21.425781 83.351562 21.476562 82.820312 21.476562 82.289062 C 21.53125 81.597656 21.53125 80.90625 21.53125 80.214844 C 21.53125 79.949219 21.53125 79.683594 21.53125 79.417969 C 21.53125 78.464844 21.53125 77.453125 21.636719 76.445312 C 21.691406 76.019531 21.742188 75.539062 21.742188 75.117188 C 21.796875 74.585938 21.847656 74.054688 21.902344 73.523438 C 21.957031 72.511719 21.957031 71.449219 21.957031 70.226562 L 21.957031 69.644531 C 21.957031 69.21875 21.957031 68.792969 21.957031 68.367188 C 21.957031 67.625 22.007812 66.933594 22.0625 66.191406 L 22.0625 66.082031 C 22.113281 65.550781 22.539062 65.019531 22.910156 64.753906 C 23.230469 64.542969 23.65625 64.4375 24.027344 64.4375 C 24.132812 64.4375 24.292969 64.4375 24.398438 64.488281 C 24.398438 64.488281 24.453125 64.488281 24.453125 64.488281 C 24.613281 64.4375 24.773438 64.382812 24.878906 64.382812 L 24.929688 64.382812 C 25.570312 64.4375 26.257812 64.4375 26.898438 64.4375 C 27.585938 64.4375 28.332031 64.488281 29.023438 64.542969 C 29.660156 64.597656 30.296875 64.648438 30.882812 64.703125 C 31.359375 64.753906 31.785156 64.753906 32.261719 64.808594 C 32.6875 64.808594 33.113281 64.808594 33.484375 64.808594 C 34.015625 64.808594 34.546875 64.808594 35.078125 64.808594 C 35.664062 64.808594 36.195312 64.808594 36.777344 64.808594 C 37.097656 64.808594 37.363281 64.808594 37.683594 64.808594 C 38 64.808594 38.265625 64.808594 38.585938 64.808594 C 38.796875 64.808594 39.011719 64.808594 39.222656 64.808594 C 39.488281 64.808594 39.753906 64.808594 40.019531 64.808594 C 40.5 64.808594 40.976562 64.808594 41.453125 64.808594 C 43.527344 64.808594 45.597656 64.753906 47.722656 64.753906 C 48.894531 64.753906 50.0625 64.703125 51.230469 64.648438 C 51.921875 64.648438 52.613281 64.597656 53.300781 64.597656 C 55.109375 64.542969 56.96875 64.542969 58.773438 64.542969 C 60.847656 64.542969 63.027344 64.542969 65.152344 64.4375 C 67.277344 64.382812 69.402344 64.332031 70.996094 64.332031 L 71.527344 64.332031 C 72.109375 64.332031 72.695312 64.332031 73.28125 64.332031 C 73.4375 64.332031 73.597656 64.332031 73.757812 64.332031 L 74.394531 64.332031 C 74.820312 64.332031 75.296875 64.332031 75.722656 64.332031 C 75.988281 64.332031 76.308594 64.332031 76.574219 64.332031 C 77.425781 64.332031 78.273438 64.277344 79.175781 64.222656 C 80.238281 64.171875 81.355469 64.117188 82.472656 64.117188 C 82.789062 64.117188 83.109375 64.117188 83.425781 64.117188 C 84.96875 64.117188 86.617188 64.171875 88.261719 64.222656 L 89.058594 64.277344 C 89.804688 64.332031 90.546875 64.332031 91.238281 64.382812 C 92.085938 64.382812 92.9375 64.382812 93.789062 64.382812 L 94.105469 64.382812 C 95.0625 64.382812 96.074219 64.4375 96.976562 64.4375 C 97.984375 64.488281 98.996094 64.488281 100.003906 64.488281 C 101.546875 64.488281 103.140625 64.542969 104.625 64.597656 L 105.953125 64.648438 C 107.601562 64.703125 109.25 64.703125 110.789062 64.703125 L 113.339844 64.703125 C 116.632812 64.703125 120.035156 64.703125 123.382812 64.648438 L 125.242188 64.648438 C 126.570312 64.648438 127.898438 64.648438 129.277344 64.597656 C 129.4375 64.597656 129.597656 64.597656 129.703125 64.597656 C 130.074219 64.597656 130.449219 64.597656 130.820312 64.597656 C 131.140625 64.597656 131.511719 64.597656 131.828125 64.597656 L 131.988281 64.597656 C 132.359375 64.597656 132.679688 64.597656 133.050781 64.597656 C 133.742188 64.597656 134.433594 64.597656 135.125 64.597656 L 135.601562 64.597656 C 136.132812 64.597656 136.664062 64.597656 137.25 64.597656 C 137.460938 64.597656 137.671875 64.597656 137.886719 64.597656 C 138.3125 64.597656 138.789062 64.597656 139.214844 64.542969 C 139.800781 64.542969 140.382812 64.542969 140.914062 64.488281 C 141.925781 64.488281 142.933594 64.4375 143.890625 64.382812 C 144.792969 64.332031 145.695312 64.332031 146.601562 64.277344 L 147.554688 64.277344 C 149.042969 64.222656 150.636719 64.222656 152.125 64.222656 C 152.550781 64.222656 153.027344 64.222656 153.453125 64.222656 C 153.984375 64.222656 154.515625 64.222656 155.046875 64.222656 L 155.207031 64.222656 C 155.738281 64.222656 156.269531 64.222656 156.800781 64.222656 C 157.171875 64.222656 157.542969 64.222656 157.917969 64.222656 C 159.722656 64.222656 161.6875 64.277344 163.65625 64.382812 C 165.78125 64.488281 167.480469 64.542969 169.019531 64.542969 L 173.003906 64.542969 C 173.589844 64.542969 174.175781 64.542969 174.757812 64.542969 C 174.972656 64.542969 175.128906 64.542969 175.34375 64.542969 C 176.9375 64.542969 178.585938 64.648438 180.019531 64.703125 C 179.914062 64.703125 179.804688 64.703125 179.699219 64.703125 C 179.914062 64.703125 180.125 64.703125 180.335938 64.753906 C 180.65625 64.753906 180.976562 64.808594 181.292969 64.808594 C 181.664062 64.808594 181.984375 64.863281 182.355469 64.863281 C 182.460938 64.863281 182.621094 64.863281 182.78125 64.863281 C 182.941406 64.863281 183.152344 64.863281 183.3125 64.914062 C 183.367188 64.914062 183.367188 64.914062 183.417969 64.914062 C 183.472656 64.914062 183.523438 64.914062 183.578125 64.914062 C 183.789062 64.914062 183.949219 64.96875 184.164062 65.019531 C 184.214844 65.019531 184.269531 65.019531 184.269531 65.019531 C 184.320312 65.019531 184.375 65.019531 184.429688 65.019531 C 185.4375 65.019531 186.339844 65.816406 186.449219 66.878906 L 186.449219 67.304688 L 186.5 67.675781 C 186.554688 68.316406 186.660156 69.003906 186.660156 69.644531 C 187.03125 70.652344 187.03125 71.449219 186.980469 72.246094 Z M 22.753906 61.40625 C 23.070312 61.726562 23.441406 61.886719 23.761719 61.9375 C 25.515625 62.152344 27.480469 62.257812 29.871094 62.257812 C 30.988281 62.257812 32.15625 62.3125 33.378906 62.3125 C 34.070312 62.3125 34.761719 62.3125 35.503906 62.3125 C 36.992188 62.3125 38.480469 62.203125 39.914062 62.097656 C 40.5 62.046875 41.03125 62.046875 41.613281 61.992188 C 42.515625 61.9375 43.421875 61.886719 44.269531 61.832031 C 45.226562 61.78125 46.183594 61.671875 47.085938 61.621094 C 47.882812 61.566406 48.679688 61.566406 49.476562 61.515625 C 50.699219 61.460938 51.867188 61.40625 53.089844 61.355469 C 54.898438 61.25 56.808594 61.195312 59.148438 61.140625 C 59.890625 61.140625 60.6875 61.140625 61.429688 61.089844 C 62.496094 61.089844 63.609375 61.089844 64.671875 61.035156 C 65.574219 61.035156 66.480469 60.984375 67.382812 60.929688 C 68.496094 60.875 69.613281 60.875 70.730469 60.824219 L 70.890625 60.824219 C 71.738281 60.824219 72.640625 60.769531 73.492188 60.769531 L 73.652344 60.769531 C 73.917969 60.769531 74.183594 60.769531 74.449219 60.769531 C 74.765625 60.769531 75.140625 60.769531 75.457031 60.769531 C 75.828125 60.769531 76.203125 60.769531 76.519531 60.769531 L 77.636719 60.769531 C 79.285156 60.71875 80.929688 60.71875 82.578125 60.609375 C 83.269531 60.558594 83.957031 60.558594 84.597656 60.503906 C 85.820312 60.453125 87.09375 60.34375 88.316406 60.34375 C 89.007812 60.292969 89.75 60.292969 90.441406 60.238281 C 91.664062 60.1875 92.992188 60.132812 94.214844 60.078125 C 95.648438 60.078125 97.082031 60.027344 98.675781 60.027344 C 100.75 60.027344 102.980469 60.027344 105.796875 60.078125 C 106.433594 60.078125 107.070312 60.078125 107.707031 60.132812 C 109.035156 60.132812 110.363281 60.1875 111.691406 60.1875 L 112.066406 60.1875 C 112.703125 60.1875 113.339844 60.1875 114.03125 60.1875 L 114.507812 60.1875 C 115.253906 60.1875 115.945312 60.1875 116.6875 60.1875 C 117.007812 60.1875 117.273438 60.1875 117.589844 60.1875 C 117.910156 60.1875 118.175781 60.1875 118.492188 60.1875 C 119.609375 60.1875 120.671875 60.1875 121.789062 60.132812 C 122.371094 60.132812 122.902344 60.132812 123.488281 60.132812 C 124.339844 60.132812 125.242188 60.078125 126.089844 60.078125 C 127.101562 60.027344 128.164062 60.027344 129.226562 60.027344 L 129.277344 60.027344 C 129.757812 60.027344 130.183594 60.027344 130.660156 60.027344 C 131.085938 60.027344 131.511719 60.027344 131.988281 60.027344 L 135.175781 60.027344 C 136.71875 60.027344 138.257812 60.078125 139.746094 60.132812 L 140.863281 60.1875 C 141.925781 60.238281 142.988281 60.238281 143.996094 60.238281 C 144.632812 60.238281 145.21875 60.238281 145.855469 60.292969 C 147.289062 60.34375 148.832031 60.398438 150.476562 60.453125 L 151.167969 60.503906 C 152.390625 60.558594 153.613281 60.664062 154.835938 60.71875 C 155.417969 60.71875 156.003906 60.769531 156.589844 60.769531 C 157.386719 60.769531 158.183594 60.824219 159.03125 60.875 C 160.679688 60.984375 162.328125 61.035156 163.921875 61.089844 C 165.089844 61.140625 166.203125 61.195312 167.375 61.25 C 168.703125 61.355469 170.082031 61.40625 171.570312 61.515625 C 173.003906 61.621094 174.492188 61.726562 176.351562 61.9375 C 177.839844 62.097656 179.488281 62.257812 181.082031 62.3125 L 181.132812 62.3125 C 181.613281 62.3125 182.144531 61.9375 182.460938 61.621094 C 182.675781 61.355469 182.835938 61.089844 182.941406 60.769531 C 183.101562 60.609375 183.207031 60.453125 183.3125 60.292969 C 183.578125 59.761719 183.578125 59.28125 183.472656 58.699219 C 183.417969 58.378906 183.3125 58.007812 183.207031 57.6875 C 183.152344 57.476562 183.101562 57.265625 182.992188 57 L 183.101562 57.421875 C 182.78125 55.9375 182.195312 54.605469 181.71875 53.492188 C 181.242188 52.535156 180.867188 51.683594 180.390625 50.941406 C 180.019531 50.304688 179.648438 49.613281 179.167969 48.710938 C 178.585938 47.542969 177.789062 46.476562 177.042969 45.414062 C 176.882812 45.148438 176.671875 44.9375 176.511719 44.671875 C 176.191406 44.195312 175.820312 43.664062 175.503906 43.183594 C 174.863281 42.226562 174.226562 41.273438 173.535156 40.367188 C 173.058594 39.730469 172.527344 39.09375 172.050781 38.507812 C 171.519531 37.871094 170.933594 37.179688 170.402344 36.4375 C 170.191406 36.117188 169.976562 35.800781 169.765625 35.480469 C 169.5 35.109375 169.234375 34.738281 168.96875 34.363281 C 168.382812 33.566406 167.691406 32.769531 167.054688 32.082031 C 166.523438 31.441406 165.9375 30.859375 165.355469 30.21875 L 165.25 30.113281 C 165.089844 29.953125 164.929688 29.796875 164.769531 29.636719 C 164.34375 29.210938 163.921875 28.734375 163.496094 28.308594 C 162.378906 27.191406 161.105469 26.234375 159.828125 25.332031 L 159.457031 25.066406 C 157.808594 23.84375 156.324219 22.78125 154.941406 21.773438 L 154.410156 21.402344 C 153.773438 20.921875 153.082031 20.445312 152.390625 20.019531 C 151.648438 19.542969 150.851562 19.117188 150.054688 18.691406 L 149.945312 18.636719 C 148.617188 17.894531 147.183594 17.203125 145.855469 16.566406 L 144.898438 16.085938 C 143.304688 15.289062 141.5 14.441406 139.640625 13.695312 C 137.886719 13.007812 136.132812 12.316406 134.378906 11.730469 C 132.734375 11.199219 131.03125 10.722656 129.226562 10.296875 C 127.738281 9.925781 126.089844 9.660156 124.179688 9.445312 C 122.320312 9.234375 120.511719 9.074219 118.492188 8.96875 L 117.960938 8.914062 C 116.210938 8.808594 114.347656 8.648438 112.542969 8.597656 L 111.746094 8.597656 C 111.054688 8.597656 110.417969 8.542969 109.726562 8.542969 L 109.410156 8.542969 C 108.558594 8.542969 107.601562 8.597656 106.644531 8.648438 C 104.679688 8.757812 102.714844 8.914062 100.75 9.023438 C 98.835938 9.128906 96.976562 9.289062 95.117188 9.554688 C 93.042969 9.820312 91.023438 10.136719 89.273438 10.402344 L 88.316406 10.5625 C 86.667969 10.828125 84.914062 11.09375 83.214844 11.464844 C 81.515625 11.835938 79.761719 12.316406 78.113281 12.792969 L 77.53125 12.953125 C 75.511719 13.484375 73.597656 14.070312 71.792969 14.707031 C 69.773438 15.398438 67.964844 16.085938 66.320312 16.777344 C 64.460938 17.574219 62.601562 18.480469 60.792969 19.382812 L 60.6875 19.433594 C 59.835938 19.859375 58.933594 20.339844 58.03125 20.871094 C 57.289062 21.292969 56.492188 21.824219 55.585938 22.464844 C 54.738281 23.046875 53.941406 23.632812 53.144531 24.269531 C 52.453125 24.75 51.761719 25.28125 51.070312 25.757812 C 49.796875 26.714844 48.414062 27.617188 47.140625 28.519531 L 46.183594 29.210938 C 44.640625 30.273438 43.15625 31.496094 41.828125 32.71875 C 40.285156 34.046875 38.746094 35.480469 37.257812 36.96875 C 36.035156 38.191406 34.652344 39.625 33.378906 41.164062 C 33.007812 41.644531 32.636719 42.070312 32.261719 42.492188 C 31.519531 43.34375 30.828125 44.246094 30.085938 45.148438 C 29.445312 45.945312 28.914062 46.691406 28.4375 47.328125 C 27.851562 48.125 27.320312 48.871094 26.84375 49.667969 C 25.835938 51.3125 24.929688 52.800781 24.132812 54.234375 C 23.335938 55.617188 22.644531 57.15625 22.007812 58.804688 C 21.847656 59.28125 21.691406 59.761719 21.902344 60.34375 C 22.0625 60.769531 22.378906 61.140625 22.753906 61.40625 Z M 22.753906 61.40625 " fill-opacity="1" fill-rule="nonzero"/></g></svg>